<svg width="375" height="812" viewBox="0 0 375 812" fill="none" xmlns="http://www.w3.org/2000/svg">
<g clip-path="url(#clip0)">
<rect width="375" height="812" fill="white"/>
<rect x="-15.5" y="0.5" width="406" height="110" fill="white" stroke="black"/>
<rect x="10.5" y="10.5" width="49" height="49" fill="white" stroke="black"/>
<rect x="10.5" y="10.5" width="84" height="76" fill="white" stroke="black"/>
<rect x="316.5" y="11.5" width="49" height="49" fill="white" stroke="black"/>
<rect x="11.5" y="129.5" width="112" height="40" fill="white" stroke="black"/>
<path d="M208.789 151.027H202.039V158H198.523V140.938H209.633V143.785H202.039V148.191H208.789V151.027ZM217.027 158.234C215.168 158.234 213.652 157.664 212.48 156.523C211.316 155.383 210.734 153.863 210.734 151.965V151.637C210.734 150.363 210.98 149.227 211.473 148.227C211.965 147.219 212.66 146.445 213.559 145.906C214.465 145.359 215.496 145.086 216.652 145.086C218.387 145.086 219.75 145.633 220.742 146.727C221.742 147.82 222.242 149.371 222.242 151.379V152.762H214.168C214.277 153.59 214.605 154.254 215.152 154.754C215.707 155.254 216.406 155.504 217.25 155.504C218.555 155.504 219.574 155.031 220.309 154.086L221.973 155.949C221.465 156.668 220.777 157.23 219.91 157.637C219.043 158.035 218.082 158.234 217.027 158.234ZM216.641 147.828C215.969 147.828 215.422 148.055 215 148.508C214.586 148.961 214.32 149.609 214.203 150.453H218.914V150.184C218.898 149.434 218.695 148.855 218.305 148.449C217.914 148.035 217.359 147.828 216.641 147.828ZM231.523 158C231.367 157.695 231.254 157.316 231.184 156.863C230.363 157.777 229.297 158.234 227.984 158.234C226.742 158.234 225.711 157.875 224.891 157.156C224.078 156.438 223.672 155.531 223.672 154.438C223.672 153.094 224.168 152.062 225.16 151.344C226.16 150.625 227.602 150.262 229.484 150.254H231.043V149.527C231.043 148.941 230.891 148.473 230.586 148.121C230.289 147.77 229.816 147.594 229.168 147.594C228.598 147.594 228.148 147.73 227.82 148.004C227.5 148.277 227.34 148.652 227.34 149.129H223.953C223.953 148.395 224.18 147.715 224.633 147.09C225.086 146.465 225.727 145.977 226.555 145.625C227.383 145.266 228.312 145.086 229.344 145.086C230.906 145.086 232.145 145.48 233.059 146.27C233.98 147.051 234.441 148.152 234.441 149.574V155.07C234.449 156.273 234.617 157.184 234.945 157.801V158H231.523ZM228.723 155.645C229.223 155.645 229.684 155.535 230.105 155.316C230.527 155.09 230.84 154.789 231.043 154.414V152.234H229.777C228.082 152.234 227.18 152.82 227.07 153.992L227.059 154.191C227.059 154.613 227.207 154.961 227.504 155.234C227.801 155.508 228.207 155.645 228.723 155.645ZM241.098 142.203V145.32H243.266V147.805H241.098V154.133C241.098 154.602 241.188 154.938 241.367 155.141C241.547 155.344 241.891 155.445 242.398 155.445C242.773 155.445 243.105 155.418 243.395 155.363V157.93C242.73 158.133 242.047 158.234 241.344 158.234C238.969 158.234 237.758 157.035 237.711 154.637V147.805H235.859V145.32H237.711V142.203H241.098ZM252.746 156.711C251.91 157.727 250.754 158.234 249.277 158.234C247.918 158.234 246.879 157.844 246.16 157.062C245.449 156.281 245.086 155.137 245.07 153.629V145.32H248.457V153.512C248.457 154.832 249.059 155.492 250.262 155.492C251.41 155.492 252.199 155.094 252.629 154.297V145.32H256.027V158H252.84L252.746 156.711ZM265.707 148.496C265.246 148.434 264.84 148.402 264.488 148.402C263.207 148.402 262.367 148.836 261.969 149.703V158H258.582V145.32H261.781L261.875 146.832C262.555 145.668 263.496 145.086 264.699 145.086C265.074 145.086 265.426 145.137 265.754 145.238L265.707 148.496ZM272.949 158.234C271.09 158.234 269.574 157.664 268.402 156.523C267.238 155.383 266.656 153.863 266.656 151.965V151.637C266.656 150.363 266.902 149.227 267.395 148.227C267.887 147.219 268.582 146.445 269.48 145.906C270.387 145.359 271.418 145.086 272.574 145.086C274.309 145.086 275.672 145.633 276.664 146.727C277.664 147.82 278.164 149.371 278.164 151.379V152.762H270.09C270.199 153.59 270.527 154.254 271.074 154.754C271.629 155.254 272.328 155.504 273.172 155.504C274.477 155.504 275.496 155.031 276.23 154.086L277.895 155.949C277.387 156.668 276.699 157.23 275.832 157.637C274.965 158.035 274.004 158.234 272.949 158.234ZM272.562 147.828C271.891 147.828 271.344 148.055 270.922 148.508C270.508 148.961 270.242 149.609 270.125 150.453H274.836V150.184C274.82 149.434 274.617 148.855 274.227 148.449C273.836 148.035 273.281 147.828 272.562 147.828ZM279.57 151.566C279.57 149.59 280.012 148.016 280.895 146.844C281.785 145.672 283 145.086 284.539 145.086C285.773 145.086 286.793 145.547 287.598 146.469V140H290.996V158H287.938L287.773 156.652C286.93 157.707 285.844 158.234 284.516 158.234C283.023 158.234 281.824 157.648 280.918 156.477C280.02 155.297 279.57 153.66 279.57 151.566ZM282.957 151.812C282.957 153 283.164 153.91 283.578 154.543C283.992 155.176 284.594 155.492 285.383 155.492C286.43 155.492 287.168 155.051 287.598 154.168V149.164C287.176 148.281 286.445 147.84 285.406 147.84C283.773 147.84 282.957 149.164 282.957 151.812ZM303.559 158H300.043V140.938H303.559V158ZM310.66 142.203V145.32H312.828V147.805H310.66V154.133C310.66 154.602 310.75 154.938 310.93 155.141C311.109 155.344 311.453 155.445 311.961 155.445C312.336 155.445 312.668 155.418 312.957 155.363V157.93C312.293 158.133 311.609 158.234 310.906 158.234C308.531 158.234 307.32 157.035 307.273 154.637V147.805H305.422V145.32H307.273V142.203H310.66ZM320.551 158.234C318.691 158.234 317.176 157.664 316.004 156.523C314.84 155.383 314.258 153.863 314.258 151.965V151.637C314.258 150.363 314.504 149.227 314.996 148.227C315.488 147.219 316.184 146.445 317.082 145.906C317.988 145.359 319.02 145.086 320.176 145.086C321.91 145.086 323.273 145.633 324.266 146.727C325.266 147.82 325.766 149.371 325.766 151.379V152.762H317.691C317.801 153.59 318.129 154.254 318.676 154.754C319.23 155.254 319.93 155.504 320.773 155.504C322.078 155.504 323.098 155.031 323.832 154.086L325.496 155.949C324.988 156.668 324.301 157.23 323.434 157.637C322.566 158.035 321.605 158.234 320.551 158.234ZM320.164 147.828C319.492 147.828 318.945 148.055 318.523 148.508C318.109 148.961 317.844 149.609 317.727 150.453H322.438V150.184C322.422 149.434 322.219 148.855 321.828 148.449C321.438 148.035 320.883 147.828 320.164 147.828ZM330.875 145.32L330.98 146.738C331.879 145.637 333.094 145.086 334.625 145.086C336.258 145.086 337.379 145.73 337.988 147.02C338.879 145.73 340.148 145.086 341.797 145.086C343.172 145.086 344.195 145.488 344.867 146.293C345.539 147.09 345.875 148.293 345.875 149.902V158H342.477V149.914C342.477 149.195 342.336 148.672 342.055 148.344C341.773 148.008 341.277 147.84 340.566 147.84C339.551 147.84 338.848 148.324 338.457 149.293L338.469 158H335.082V149.926C335.082 149.191 334.938 148.66 334.648 148.332C334.359 148.004 333.867 147.84 333.172 147.84C332.211 147.84 331.516 148.238 331.086 149.035V158H327.699V145.32H330.875ZM355.355 154.496C355.355 154.082 355.148 153.758 354.734 153.523C354.328 153.281 353.672 153.066 352.766 152.879C349.75 152.246 348.242 150.965 348.242 149.035C348.242 147.91 348.707 146.973 349.637 146.223C350.574 145.465 351.797 145.086 353.305 145.086C354.914 145.086 356.199 145.465 357.16 146.223C358.129 146.98 358.613 147.965 358.613 149.176H355.227C355.227 148.691 355.07 148.293 354.758 147.98C354.445 147.66 353.957 147.5 353.293 147.5C352.723 147.5 352.281 147.629 351.969 147.887C351.656 148.145 351.5 148.473 351.5 148.871C351.5 149.246 351.676 149.551 352.027 149.785C352.387 150.012 352.988 150.211 353.832 150.383C354.676 150.547 355.387 150.734 355.965 150.945C357.754 151.602 358.648 152.738 358.648 154.355C358.648 155.512 358.152 156.449 357.16 157.168C356.168 157.879 354.887 158.234 353.316 158.234C352.254 158.234 351.309 158.047 350.48 157.672C349.66 157.289 349.016 156.77 348.547 156.113C348.078 155.449 347.844 154.734 347.844 153.969H351.055C351.086 154.57 351.309 155.031 351.723 155.352C352.137 155.672 352.691 155.832 353.387 155.832C354.035 155.832 354.523 155.711 354.852 155.469C355.188 155.219 355.355 154.895 355.355 154.496Z" fill="black"/>
<rect x="29.5" y="231.5" width="134" height="131" fill="white" stroke="black"/>
<path d="M85.9082 222H84.1504V213.469H85.9082V222ZM89.459 214.102V215.66H90.543V216.902H89.459V220.066C89.459 220.301 89.5039 220.469 89.5938 220.57C89.6836 220.672 89.8555 220.723 90.1094 220.723C90.2969 220.723 90.4629 220.709 90.6074 220.682V221.965C90.2754 222.066 89.9336 222.117 89.582 222.117C88.3945 222.117 87.7891 221.518 87.7656 220.318V216.902H86.8398V215.66H87.7656V214.102H89.459ZM94.4043 222.117C93.4746 222.117 92.7168 221.832 92.1309 221.262C91.5488 220.691 91.2578 219.932 91.2578 218.982V218.818C91.2578 218.182 91.3809 217.613 91.627 217.113C91.873 216.609 92.2207 216.223 92.6699 215.953C93.123 215.68 93.6387 215.543 94.2168 215.543C95.084 215.543 95.7656 215.816 96.2617 216.363C96.7617 216.91 97.0117 217.686 97.0117 218.689V219.381H92.9746C93.0293 219.795 93.1934 220.127 93.4668 220.377C93.7441 220.627 94.0938 220.752 94.5156 220.752C95.168 220.752 95.6777 220.516 96.0449 220.043L96.877 220.975C96.623 221.334 96.2793 221.615 95.8457 221.818C95.4121 222.018 94.9316 222.117 94.4043 222.117ZM94.2109 216.914C93.875 216.914 93.6016 217.027 93.3906 217.254C93.1836 217.48 93.0508 217.805 92.9922 218.227H95.3477V218.092C95.3398 217.717 95.2383 217.428 95.043 217.225C94.8477 217.018 94.5703 216.914 94.2109 216.914ZM99.5664 215.66L99.6191 216.369C100.068 215.818 100.676 215.543 101.441 215.543C102.258 215.543 102.818 215.865 103.123 216.51C103.568 215.865 104.203 215.543 105.027 215.543C105.715 215.543 106.227 215.744 106.562 216.146C106.898 216.545 107.066 217.146 107.066 217.951V222H105.367V217.957C105.367 217.598 105.297 217.336 105.156 217.172C105.016 217.004 104.768 216.92 104.412 216.92C103.904 216.92 103.553 217.162 103.357 217.646L103.363 222H101.67V217.963C101.67 217.596 101.598 217.33 101.453 217.166C101.309 217.002 101.062 216.92 100.715 216.92C100.234 216.92 99.8867 217.119 99.6719 217.518V222H97.9785V215.66H99.5664Z" fill="black"/>
<path d="M78.9746 376.232H75.3945V380H74.2695V371.469H79.5547V372.395H75.3945V375.312H78.9746V376.232ZM83.2344 380.117C82.375 380.117 81.6758 379.836 81.1367 379.273C80.5977 378.707 80.3281 377.951 80.3281 377.006V376.807C80.3281 376.178 80.4473 375.617 80.6855 375.125C80.9277 374.629 81.2637 374.242 81.6934 373.965C82.127 373.684 82.5957 373.543 83.0996 373.543C83.9238 373.543 84.5645 373.814 85.0215 374.357C85.4785 374.9 85.707 375.678 85.707 376.689V377.141H81.4121C81.4277 377.766 81.6094 378.271 81.957 378.658C82.3086 379.041 82.7539 379.232 83.293 379.232C83.6758 379.232 84 379.154 84.2656 378.998C84.5312 378.842 84.7637 378.635 84.9629 378.377L85.625 378.893C85.0938 379.709 84.2969 380.117 83.2344 380.117ZM83.0996 374.434C82.6621 374.434 82.2949 374.594 81.998 374.914C81.7012 375.23 81.5176 375.676 81.4473 376.25H84.623V376.168C84.5918 375.617 84.4434 375.191 84.1777 374.891C83.9121 374.586 83.5527 374.434 83.0996 374.434ZM90.8809 380C90.8184 379.875 90.7676 379.652 90.7285 379.332C90.2246 379.855 89.623 380.117 88.9238 380.117C88.2988 380.117 87.7852 379.941 87.3828 379.59C86.9844 379.234 86.7852 378.785 86.7852 378.242C86.7852 377.582 87.0352 377.07 87.5352 376.707C88.0391 376.34 88.7461 376.156 89.6562 376.156H90.7109V375.658C90.7109 375.279 90.5977 374.979 90.3711 374.756C90.1445 374.529 89.8105 374.416 89.3691 374.416C88.9824 374.416 88.6582 374.514 88.3965 374.709C88.1348 374.904 88.0039 375.141 88.0039 375.418H86.9141C86.9141 375.102 87.0254 374.797 87.248 374.504C87.4746 374.207 87.7793 373.973 88.1621 373.801C88.5488 373.629 88.9727 373.543 89.4336 373.543C90.1641 373.543 90.7363 373.727 91.1504 374.094C91.5645 374.457 91.7793 374.959 91.7949 375.6V378.518C91.7949 379.1 91.8691 379.562 92.0176 379.906V380H90.8809ZM89.082 379.174C89.4219 379.174 89.7441 379.086 90.0488 378.91C90.3535 378.734 90.5742 378.506 90.7109 378.225V376.924H89.8613C88.5332 376.924 87.8691 377.312 87.8691 378.09C87.8691 378.43 87.9824 378.695 88.209 378.887C88.4355 379.078 88.7266 379.174 89.082 379.174ZM94.9648 372.125V373.66H96.1484V374.498H94.9648V378.43C94.9648 378.684 95.0176 378.875 95.123 379.004C95.2285 379.129 95.4082 379.191 95.6621 379.191C95.7871 379.191 95.959 379.168 96.1777 379.121V380C95.8926 380.078 95.6152 380.117 95.3457 380.117C94.8613 380.117 94.4961 379.971 94.25 379.678C94.0039 379.385 93.8809 378.969 93.8809 378.43V374.498H92.7266V373.66H93.8809V372.125H94.9648ZM101.334 379.373C100.912 379.869 100.293 380.117 99.4766 380.117C98.8008 380.117 98.2852 379.922 97.9297 379.531C97.5781 379.137 97.4004 378.555 97.3965 377.785V373.66H98.4805V377.756C98.4805 378.717 98.8711 379.197 99.6523 379.197C100.48 379.197 101.031 378.889 101.305 378.271V373.66H102.389V380H101.357L101.334 379.373ZM107.105 374.633C106.941 374.605 106.764 374.592 106.572 374.592C105.861 374.592 105.379 374.895 105.125 375.5V380H104.041V373.66H105.096L105.113 374.393C105.469 373.826 105.973 373.543 106.625 373.543C106.836 373.543 106.996 373.57 107.105 373.625V374.633ZM110.621 380.117C109.762 380.117 109.062 379.836 108.523 379.273C107.984 378.707 107.715 377.951 107.715 377.006V376.807C107.715 376.178 107.834 375.617 108.072 375.125C108.314 374.629 108.65 374.242 109.08 373.965C109.514 373.684 109.982 373.543 110.486 373.543C111.311 373.543 111.951 373.814 112.408 374.357C112.865 374.9 113.094 375.678 113.094 376.689V377.141H108.799C108.814 377.766 108.996 378.271 109.344 378.658C109.695 379.041 110.141 379.232 110.68 379.232C111.062 379.232 111.387 379.154 111.652 378.998C111.918 378.842 112.15 378.635 112.35 378.377L113.012 378.893C112.48 379.709 111.684 380.117 110.621 380.117ZM110.486 374.434C110.049 374.434 109.682 374.594 109.385 374.914C109.088 375.23 108.904 375.676 108.834 376.25H112.01V376.168C111.979 375.617 111.83 375.191 111.564 374.891C111.299 374.586 110.939 374.434 110.486 374.434ZM118.045 378.318C118.045 378.025 117.934 377.799 117.711 377.639C117.492 377.475 117.107 377.334 116.557 377.217C116.01 377.1 115.574 376.959 115.25 376.795C114.93 376.631 114.691 376.436 114.535 376.209C114.383 375.982 114.307 375.713 114.307 375.4C114.307 374.881 114.525 374.441 114.963 374.082C115.404 373.723 115.967 373.543 116.65 373.543C117.369 373.543 117.951 373.729 118.396 374.1C118.846 374.471 119.07 374.945 119.07 375.523H117.98C117.98 375.227 117.854 374.971 117.6 374.756C117.35 374.541 117.033 374.434 116.65 374.434C116.256 374.434 115.947 374.52 115.725 374.691C115.502 374.863 115.391 375.088 115.391 375.365C115.391 375.627 115.494 375.824 115.701 375.957C115.908 376.09 116.281 376.217 116.82 376.338C117.363 376.459 117.803 376.604 118.139 376.771C118.475 376.939 118.723 377.143 118.883 377.381C119.047 377.615 119.129 377.902 119.129 378.242C119.129 378.809 118.902 379.264 118.449 379.607C117.996 379.947 117.408 380.117 116.686 380.117C116.178 380.117 115.729 380.027 115.338 379.848C114.947 379.668 114.641 379.418 114.418 379.098C114.199 378.773 114.09 378.424 114.09 378.049H115.174C115.193 378.412 115.338 378.701 115.607 378.916C115.881 379.127 116.24 379.232 116.686 379.232C117.096 379.232 117.424 379.15 117.67 378.986C117.92 378.818 118.045 378.596 118.045 378.318Z" fill="black"/>
<rect x="31.5" y="645.5" width="134" height="131" fill="white" stroke="black"/>
<path d="M87.9082 636H86.1504V627.469H87.9082V636ZM91.459 628.102V629.66H92.543V630.902H91.459V634.066C91.459 634.301 91.5039 634.469 91.5938 634.57C91.6836 634.672 91.8555 634.723 92.1094 634.723C92.2969 634.723 92.4629 634.709 92.6074 634.682V635.965C92.2754 636.066 91.9336 636.117 91.582 636.117C90.3945 636.117 89.7891 635.518 89.7656 634.318V630.902H88.8398V629.66H89.7656V628.102H91.459ZM96.4043 636.117C95.4746 636.117 94.7168 635.832 94.1309 635.262C93.5488 634.691 93.2578 633.932 93.2578 632.982V632.818C93.2578 632.182 93.3809 631.613 93.627 631.113C93.873 630.609 94.2207 630.223 94.6699 629.953C95.123 629.68 95.6387 629.543 96.2168 629.543C97.084 629.543 97.7656 629.816 98.2617 630.363C98.7617 630.91 99.0117 631.686 99.0117 632.689V633.381H94.9746C95.0293 633.795 95.1934 634.127 95.4668 634.377C95.7441 634.627 96.0938 634.752 96.5156 634.752C97.168 634.752 97.6777 634.516 98.0449 634.043L98.877 634.975C98.623 635.334 98.2793 635.615 97.8457 635.818C97.4121 636.018 96.9316 636.117 96.4043 636.117ZM96.2109 630.914C95.875 630.914 95.6016 631.027 95.3906 631.254C95.1836 631.48 95.0508 631.805 94.9922 632.227H97.3477V632.092C97.3398 631.717 97.2383 631.428 97.043 631.225C96.8477 631.018 96.5703 630.914 96.2109 630.914ZM101.566 629.66L101.619 630.369C102.068 629.818 102.676 629.543 103.441 629.543C104.258 629.543 104.818 629.865 105.123 630.51C105.568 629.865 106.203 629.543 107.027 629.543C107.715 629.543 108.227 629.744 108.562 630.146C108.898 630.545 109.066 631.146 109.066 631.951V636H107.367V631.957C107.367 631.598 107.297 631.336 107.156 631.172C107.016 631.004 106.768 630.92 106.412 630.92C105.904 630.92 105.553 631.162 105.357 631.646L105.363 636H103.67V631.963C103.67 631.596 103.598 631.33 103.453 631.166C103.309 631.002 103.062 630.92 102.715 630.92C102.234 630.92 101.887 631.119 101.672 631.518V636H99.9785V629.66H101.566Z" fill="black"/>
<path d="M80.9746 790.232H77.3945V794H76.2695V785.469H81.5547V786.395H77.3945V789.312H80.9746V790.232ZM85.2344 794.117C84.375 794.117 83.6758 793.836 83.1367 793.273C82.5977 792.707 82.3281 791.951 82.3281 791.006V790.807C82.3281 790.178 82.4473 789.617 82.6855 789.125C82.9277 788.629 83.2637 788.242 83.6934 787.965C84.127 787.684 84.5957 787.543 85.0996 787.543C85.9238 787.543 86.5645 787.814 87.0215 788.357C87.4785 788.9 87.707 789.678 87.707 790.689V791.141H83.4121C83.4277 791.766 83.6094 792.271 83.957 792.658C84.3086 793.041 84.7539 793.232 85.293 793.232C85.6758 793.232 86 793.154 86.2656 792.998C86.5312 792.842 86.7637 792.635 86.9629 792.377L87.625 792.893C87.0938 793.709 86.2969 794.117 85.2344 794.117ZM85.0996 788.434C84.6621 788.434 84.2949 788.594 83.998 788.914C83.7012 789.23 83.5176 789.676 83.4473 790.25H86.623V790.168C86.5918 789.617 86.4434 789.191 86.1777 788.891C85.9121 788.586 85.5527 788.434 85.0996 788.434ZM92.8809 794C92.8184 793.875 92.7676 793.652 92.7285 793.332C92.2246 793.855 91.623 794.117 90.9238 794.117C90.2988 794.117 89.7852 793.941 89.3828 793.59C88.9844 793.234 88.7852 792.785 88.7852 792.242C88.7852 791.582 89.0352 791.07 89.5352 790.707C90.0391 790.34 90.7461 790.156 91.6562 790.156H92.7109V789.658C92.7109 789.279 92.5977 788.979 92.3711 788.756C92.1445 788.529 91.8105 788.416 91.3691 788.416C90.9824 788.416 90.6582 788.514 90.3965 788.709C90.1348 788.904 90.0039 789.141 90.0039 789.418H88.9141C88.9141 789.102 89.0254 788.797 89.248 788.504C89.4746 788.207 89.7793 787.973 90.1621 787.801C90.5488 787.629 90.9727 787.543 91.4336 787.543C92.1641 787.543 92.7363 787.727 93.1504 788.094C93.5645 788.457 93.7793 788.959 93.7949 789.6V792.518C93.7949 793.1 93.8691 793.562 94.0176 793.906V794H92.8809ZM91.082 793.174C91.4219 793.174 91.7441 793.086 92.0488 792.91C92.3535 792.734 92.5742 792.506 92.7109 792.225V790.924H91.8613C90.5332 790.924 89.8691 791.312 89.8691 792.09C89.8691 792.43 89.9824 792.695 90.209 792.887C90.4355 793.078 90.7266 793.174 91.082 793.174ZM96.9648 786.125V787.66H98.1484V788.498H96.9648V792.43C96.9648 792.684 97.0176 792.875 97.123 793.004C97.2285 793.129 97.4082 793.191 97.6621 793.191C97.7871 793.191 97.959 793.168 98.1777 793.121V794C97.8926 794.078 97.6152 794.117 97.3457 794.117C96.8613 794.117 96.4961 793.971 96.25 793.678C96.0039 793.385 95.8809 792.969 95.8809 792.43V788.498H94.7266V787.66H95.8809V786.125H96.9648ZM103.334 793.373C102.912 793.869 102.293 794.117 101.477 794.117C100.801 794.117 100.285 793.922 99.9297 793.531C99.5781 793.137 99.4004 792.555 99.3965 791.785V787.66H100.48V791.756C100.48 792.717 100.871 793.197 101.652 793.197C102.48 793.197 103.031 792.889 103.305 792.271V787.66H104.389V794H103.357L103.334 793.373ZM109.105 788.633C108.941 788.605 108.764 788.592 108.572 788.592C107.861 788.592 107.379 788.895 107.125 789.5V794H106.041V787.66H107.096L107.113 788.393C107.469 787.826 107.973 787.543 108.625 787.543C108.836 787.543 108.996 787.57 109.105 787.625V788.633ZM112.621 794.117C111.762 794.117 111.062 793.836 110.523 793.273C109.984 792.707 109.715 791.951 109.715 791.006V790.807C109.715 790.178 109.834 789.617 110.072 789.125C110.314 788.629 110.65 788.242 111.08 787.965C111.514 787.684 111.982 787.543 112.486 787.543C113.311 787.543 113.951 787.814 114.408 788.357C114.865 788.9 115.094 789.678 115.094 790.689V791.141H110.799C110.814 791.766 110.996 792.271 111.344 792.658C111.695 793.041 112.141 793.232 112.68 793.232C113.062 793.232 113.387 793.154 113.652 792.998C113.918 792.842 114.15 792.635 114.35 792.377L115.012 792.893C114.48 793.709 113.684 794.117 112.621 794.117ZM112.486 788.434C112.049 788.434 111.682 788.594 111.385 788.914C111.088 789.23 110.904 789.676 110.834 790.25H114.01V790.168C113.979 789.617 113.83 789.191 113.564 788.891C113.299 788.586 112.939 788.434 112.486 788.434ZM120.045 792.318C120.045 792.025 119.934 791.799 119.711 791.639C119.492 791.475 119.107 791.334 118.557 791.217C118.01 791.1 117.574 790.959 117.25 790.795C116.93 790.631 116.691 790.436 116.535 790.209C116.383 789.982 116.307 789.713 116.307 789.4C116.307 788.881 116.525 788.441 116.963 788.082C117.404 787.723 117.967 787.543 118.65 787.543C119.369 787.543 119.951 787.729 120.396 788.1C120.846 788.471 121.07 788.945 121.07 789.523H119.98C119.98 789.227 119.854 788.971 119.6 788.756C119.35 788.541 119.033 788.434 118.65 788.434C118.256 788.434 117.947 788.52 117.725 788.691C117.502 788.863 117.391 789.088 117.391 789.365C117.391 789.627 117.494 789.824 117.701 789.957C117.908 790.09 118.281 790.217 118.82 790.338C119.363 790.459 119.803 790.604 120.139 790.771C120.475 790.939 120.723 791.143 120.883 791.381C121.047 791.615 121.129 791.902 121.129 792.242C121.129 792.809 120.902 793.264 120.449 793.607C119.996 793.947 119.408 794.117 118.686 794.117C118.178 794.117 117.729 794.027 117.338 793.848C116.947 793.668 116.641 793.418 116.418 793.098C116.199 792.773 116.09 792.424 116.09 792.049H117.174C117.193 792.412 117.338 792.701 117.607 792.916C117.881 793.127 118.24 793.232 118.686 793.232C119.096 793.232 119.424 793.15 119.67 792.986C119.92 792.818 120.045 792.596 120.045 792.318Z" fill="black"/>
<rect x="207.5" y="645.5" width="134" height="131" fill="white" stroke="black"/>
<path d="M263.908 636H262.15V627.469H263.908V636ZM267.459 628.102V629.66H268.543V630.902H267.459V634.066C267.459 634.301 267.504 634.469 267.594 634.57C267.684 634.672 267.855 634.723 268.109 634.723C268.297 634.723 268.463 634.709 268.607 634.682V635.965C268.275 636.066 267.934 636.117 267.582 636.117C266.395 636.117 265.789 635.518 265.766 634.318V630.902H264.84V629.66H265.766V628.102H267.459ZM272.404 636.117C271.475 636.117 270.717 635.832 270.131 635.262C269.549 634.691 269.258 633.932 269.258 632.982V632.818C269.258 632.182 269.381 631.613 269.627 631.113C269.873 630.609 270.221 630.223 270.67 629.953C271.123 629.68 271.639 629.543 272.217 629.543C273.084 629.543 273.766 629.816 274.262 630.363C274.762 630.91 275.012 631.686 275.012 632.689V633.381H270.975C271.029 633.795 271.193 634.127 271.467 634.377C271.744 634.627 272.094 634.752 272.516 634.752C273.168 634.752 273.678 634.516 274.045 634.043L274.877 634.975C274.623 635.334 274.279 635.615 273.846 635.818C273.412 636.018 272.932 636.117 272.404 636.117ZM272.211 630.914C271.875 630.914 271.602 631.027 271.391 631.254C271.184 631.48 271.051 631.805 270.992 632.227H273.348V632.092C273.34 631.717 273.238 631.428 273.043 631.225C272.848 631.018 272.57 630.914 272.211 630.914ZM277.566 629.66L277.619 630.369C278.068 629.818 278.676 629.543 279.441 629.543C280.258 629.543 280.818 629.865 281.123 630.51C281.568 629.865 282.203 629.543 283.027 629.543C283.715 629.543 284.227 629.744 284.562 630.146C284.898 630.545 285.066 631.146 285.066 631.951V636H283.367V631.957C283.367 631.598 283.297 631.336 283.156 631.172C283.016 631.004 282.768 630.92 282.412 630.92C281.904 630.92 281.553 631.162 281.357 631.646L281.363 636H279.67V631.963C279.67 631.596 279.598 631.33 279.453 631.166C279.309 631.002 279.062 630.92 278.715 630.92C278.234 630.92 277.887 631.119 277.672 631.518V636H275.979V629.66H277.566Z" fill="black"/>
<path d="M256.975 790.232H253.395V794H252.27V785.469H257.555V786.395H253.395V789.312H256.975V790.232ZM261.234 794.117C260.375 794.117 259.676 793.836 259.137 793.273C258.598 792.707 258.328 791.951 258.328 791.006V790.807C258.328 790.178 258.447 789.617 258.686 789.125C258.928 788.629 259.264 788.242 259.693 787.965C260.127 787.684 260.596 787.543 261.1 787.543C261.924 787.543 262.564 787.814 263.021 788.357C263.479 788.9 263.707 789.678 263.707 790.689V791.141H259.412C259.428 791.766 259.609 792.271 259.957 792.658C260.309 793.041 260.754 793.232 261.293 793.232C261.676 793.232 262 793.154 262.266 792.998C262.531 792.842 262.764 792.635 262.963 792.377L263.625 792.893C263.094 793.709 262.297 794.117 261.234 794.117ZM261.1 788.434C260.662 788.434 260.295 788.594 259.998 788.914C259.701 789.23 259.518 789.676 259.447 790.25H262.623V790.168C262.592 789.617 262.443 789.191 262.178 788.891C261.912 788.586 261.553 788.434 261.1 788.434ZM268.881 794C268.818 793.875 268.768 793.652 268.729 793.332C268.225 793.855 267.623 794.117 266.924 794.117C266.299 794.117 265.785 793.941 265.383 793.59C264.984 793.234 264.785 792.785 264.785 792.242C264.785 791.582 265.035 791.07 265.535 790.707C266.039 790.34 266.746 790.156 267.656 790.156H268.711V789.658C268.711 789.279 268.598 788.979 268.371 788.756C268.145 788.529 267.811 788.416 267.369 788.416C266.982 788.416 266.658 788.514 266.396 788.709C266.135 788.904 266.004 789.141 266.004 789.418H264.914C264.914 789.102 265.025 788.797 265.248 788.504C265.475 788.207 265.779 787.973 266.162 787.801C266.549 787.629 266.973 787.543 267.434 787.543C268.164 787.543 268.736 787.727 269.15 788.094C269.564 788.457 269.779 788.959 269.795 789.6V792.518C269.795 793.1 269.869 793.562 270.018 793.906V794H268.881ZM267.082 793.174C267.422 793.174 267.744 793.086 268.049 792.91C268.354 792.734 268.574 792.506 268.711 792.225V790.924H267.861C266.533 790.924 265.869 791.312 265.869 792.09C265.869 792.43 265.982 792.695 266.209 792.887C266.436 793.078 266.727 793.174 267.082 793.174ZM272.965 786.125V787.66H274.148V788.498H272.965V792.43C272.965 792.684 273.018 792.875 273.123 793.004C273.229 793.129 273.408 793.191 273.662 793.191C273.787 793.191 273.959 793.168 274.178 793.121V794C273.893 794.078 273.615 794.117 273.346 794.117C272.861 794.117 272.496 793.971 272.25 793.678C272.004 793.385 271.881 792.969 271.881 792.43V788.498H270.727V787.66H271.881V786.125H272.965ZM279.334 793.373C278.912 793.869 278.293 794.117 277.477 794.117C276.801 794.117 276.285 793.922 275.93 793.531C275.578 793.137 275.4 792.555 275.396 791.785V787.66H276.48V791.756C276.48 792.717 276.871 793.197 277.652 793.197C278.48 793.197 279.031 792.889 279.305 792.271V787.66H280.389V794H279.357L279.334 793.373ZM285.105 788.633C284.941 788.605 284.764 788.592 284.572 788.592C283.861 788.592 283.379 788.895 283.125 789.5V794H282.041V787.66H283.096L283.113 788.393C283.469 787.826 283.973 787.543 284.625 787.543C284.836 787.543 284.996 787.57 285.105 787.625V788.633ZM288.621 794.117C287.762 794.117 287.062 793.836 286.523 793.273C285.984 792.707 285.715 791.951 285.715 791.006V790.807C285.715 790.178 285.834 789.617 286.072 789.125C286.314 788.629 286.65 788.242 287.08 787.965C287.514 787.684 287.982 787.543 288.486 787.543C289.311 787.543 289.951 787.814 290.408 788.357C290.865 788.9 291.094 789.678 291.094 790.689V791.141H286.799C286.814 791.766 286.996 792.271 287.344 792.658C287.695 793.041 288.141 793.232 288.68 793.232C289.062 793.232 289.387 793.154 289.652 792.998C289.918 792.842 290.15 792.635 290.35 792.377L291.012 792.893C290.48 793.709 289.684 794.117 288.621 794.117ZM288.486 788.434C288.049 788.434 287.682 788.594 287.385 788.914C287.088 789.23 286.904 789.676 286.834 790.25H290.01V790.168C289.979 789.617 289.83 789.191 289.564 788.891C289.299 788.586 288.939 788.434 288.486 788.434ZM296.045 792.318C296.045 792.025 295.934 791.799 295.711 791.639C295.492 791.475 295.107 791.334 294.557 791.217C294.01 791.1 293.574 790.959 293.25 790.795C292.93 790.631 292.691 790.436 292.535 790.209C292.383 789.982 292.307 789.713 292.307 789.4C292.307 788.881 292.525 788.441 292.963 788.082C293.404 787.723 293.967 787.543 294.65 787.543C295.369 787.543 295.951 787.729 296.396 788.1C296.846 788.471 297.07 788.945 297.07 789.523H295.98C295.98 789.227 295.854 788.971 295.6 788.756C295.35 788.541 295.033 788.434 294.65 788.434C294.256 788.434 293.947 788.52 293.725 788.691C293.502 788.863 293.391 789.088 293.391 789.365C293.391 789.627 293.494 789.824 293.701 789.957C293.908 790.09 294.281 790.217 294.82 790.338C295.363 790.459 295.803 790.604 296.139 790.771C296.475 790.939 296.723 791.143 296.883 791.381C297.047 791.615 297.129 791.902 297.129 792.242C297.129 792.809 296.902 793.264 296.449 793.607C295.996 793.947 295.408 794.117 294.686 794.117C294.178 794.117 293.729 794.027 293.338 793.848C292.947 793.668 292.641 793.418 292.418 793.098C292.199 792.773 292.09 792.424 292.09 792.049H293.174C293.193 792.412 293.338 792.701 293.607 792.916C293.881 793.127 294.24 793.232 294.686 793.232C295.096 793.232 295.424 793.15 295.67 792.986C295.92 792.818 296.045 792.596 296.045 792.318Z" fill="black"/>
<rect x="30.5" y="441.5" width="134" height="131" fill="white" stroke="black"/>
<path d="M86.9082 432H85.1504V423.469H86.9082V432ZM90.459 424.102V425.66H91.543V426.902H90.459V430.066C90.459 430.301 90.5039 430.469 90.5938 430.57C90.6836 430.672 90.8555 430.723 91.1094 430.723C91.2969 430.723 91.4629 430.709 91.6074 430.682V431.965C91.2754 432.066 90.9336 432.117 90.582 432.117C89.3945 432.117 88.7891 431.518 88.7656 430.318V426.902H87.8398V425.66H88.7656V424.102H90.459ZM95.4043 432.117C94.4746 432.117 93.7168 431.832 93.1309 431.262C92.5488 430.691 92.2578 429.932 92.2578 428.982V428.818C92.2578 428.182 92.3809 427.613 92.627 427.113C92.873 426.609 93.2207 426.223 93.6699 425.953C94.123 425.68 94.6387 425.543 95.2168 425.543C96.084 425.543 96.7656 425.816 97.2617 426.363C97.7617 426.91 98.0117 427.686 98.0117 428.689V429.381H93.9746C94.0293 429.795 94.1934 430.127 94.4668 430.377C94.7441 430.627 95.0938 430.752 95.5156 430.752C96.168 430.752 96.6777 430.516 97.0449 430.043L97.877 430.975C97.623 431.334 97.2793 431.615 96.8457 431.818C96.4121 432.018 95.9316 432.117 95.4043 432.117ZM95.2109 426.914C94.875 426.914 94.6016 427.027 94.3906 427.254C94.1836 427.48 94.0508 427.805 93.9922 428.227H96.3477V428.092C96.3398 427.717 96.2383 427.428 96.043 427.225C95.8477 427.018 95.5703 426.914 95.2109 426.914ZM100.566 425.66L100.619 426.369C101.068 425.818 101.676 425.543 102.441 425.543C103.258 425.543 103.818 425.865 104.123 426.51C104.568 425.865 105.203 425.543 106.027 425.543C106.715 425.543 107.227 425.744 107.562 426.146C107.898 426.545 108.066 427.146 108.066 427.951V432H106.367V427.957C106.367 427.598 106.297 427.336 106.156 427.172C106.016 427.004 105.768 426.92 105.412 426.92C104.904 426.92 104.553 427.162 104.357 427.646L104.363 432H102.67V427.963C102.67 427.596 102.598 427.33 102.453 427.166C102.309 427.002 102.062 426.92 101.715 426.92C101.234 426.92 100.887 427.119 100.672 427.518V432H98.9785V425.66H100.566Z" fill="black"/>
<path d="M79.9746 586.232H76.3945V590H75.2695V581.469H80.5547V582.395H76.3945V585.312H79.9746V586.232ZM84.2344 590.117C83.375 590.117 82.6758 589.836 82.1367 589.273C81.5977 588.707 81.3281 587.951 81.3281 587.006V586.807C81.3281 586.178 81.4473 585.617 81.6855 585.125C81.9277 584.629 82.2637 584.242 82.6934 583.965C83.127 583.684 83.5957 583.543 84.0996 583.543C84.9238 583.543 85.5645 583.814 86.0215 584.357C86.4785 584.9 86.707 585.678 86.707 586.689V587.141H82.4121C82.4277 587.766 82.6094 588.271 82.957 588.658C83.3086 589.041 83.7539 589.232 84.293 589.232C84.6758 589.232 85 589.154 85.2656 588.998C85.5312 588.842 85.7637 588.635 85.9629 588.377L86.625 588.893C86.0938 589.709 85.2969 590.117 84.2344 590.117ZM84.0996 584.434C83.6621 584.434 83.2949 584.594 82.998 584.914C82.7012 585.23 82.5176 585.676 82.4473 586.25H85.623V586.168C85.5918 585.617 85.4434 585.191 85.1777 584.891C84.9121 584.586 84.5527 584.434 84.0996 584.434ZM91.8809 590C91.8184 589.875 91.7676 589.652 91.7285 589.332C91.2246 589.855 90.623 590.117 89.9238 590.117C89.2988 590.117 88.7852 589.941 88.3828 589.59C87.9844 589.234 87.7852 588.785 87.7852 588.242C87.7852 587.582 88.0352 587.07 88.5352 586.707C89.0391 586.34 89.7461 586.156 90.6562 586.156H91.7109V585.658C91.7109 585.279 91.5977 584.979 91.3711 584.756C91.1445 584.529 90.8105 584.416 90.3691 584.416C89.9824 584.416 89.6582 584.514 89.3965 584.709C89.1348 584.904 89.0039 585.141 89.0039 585.418H87.9141C87.9141 585.102 88.0254 584.797 88.248 584.504C88.4746 584.207 88.7793 583.973 89.1621 583.801C89.5488 583.629 89.9727 583.543 90.4336 583.543C91.1641 583.543 91.7363 583.727 92.1504 584.094C92.5645 584.457 92.7793 584.959 92.7949 585.6V588.518C92.7949 589.1 92.8691 589.562 93.0176 589.906V590H91.8809ZM90.082 589.174C90.4219 589.174 90.7441 589.086 91.0488 588.91C91.3535 588.734 91.5742 588.506 91.7109 588.225V586.924H90.8613C89.5332 586.924 88.8691 587.312 88.8691 588.09C88.8691 588.43 88.9824 588.695 89.209 588.887C89.4355 589.078 89.7266 589.174 90.082 589.174ZM95.9648 582.125V583.66H97.1484V584.498H95.9648V588.43C95.9648 588.684 96.0176 588.875 96.123 589.004C96.2285 589.129 96.4082 589.191 96.6621 589.191C96.7871 589.191 96.959 589.168 97.1777 589.121V590C96.8926 590.078 96.6152 590.117 96.3457 590.117C95.8613 590.117 95.4961 589.971 95.25 589.678C95.0039 589.385 94.8809 588.969 94.8809 588.43V584.498H93.7266V583.66H94.8809V582.125H95.9648ZM102.334 589.373C101.912 589.869 101.293 590.117 100.477 590.117C99.8008 590.117 99.2852 589.922 98.9297 589.531C98.5781 589.137 98.4004 588.555 98.3965 587.785V583.66H99.4805V587.756C99.4805 588.717 99.8711 589.197 100.652 589.197C101.48 589.197 102.031 588.889 102.305 588.271V583.66H103.389V590H102.357L102.334 589.373ZM108.105 584.633C107.941 584.605 107.764 584.592 107.572 584.592C106.861 584.592 106.379 584.895 106.125 585.5V590H105.041V583.66H106.096L106.113 584.393C106.469 583.826 106.973 583.543 107.625 583.543C107.836 583.543 107.996 583.57 108.105 583.625V584.633ZM111.621 590.117C110.762 590.117 110.062 589.836 109.523 589.273C108.984 588.707 108.715 587.951 108.715 587.006V586.807C108.715 586.178 108.834 585.617 109.072 585.125C109.314 584.629 109.65 584.242 110.08 583.965C110.514 583.684 110.982 583.543 111.486 583.543C112.311 583.543 112.951 583.814 113.408 584.357C113.865 584.9 114.094 585.678 114.094 586.689V587.141H109.799C109.814 587.766 109.996 588.271 110.344 588.658C110.695 589.041 111.141 589.232 111.68 589.232C112.062 589.232 112.387 589.154 112.652 588.998C112.918 588.842 113.15 588.635 113.35 588.377L114.012 588.893C113.48 589.709 112.684 590.117 111.621 590.117ZM111.486 584.434C111.049 584.434 110.682 584.594 110.385 584.914C110.088 585.23 109.904 585.676 109.834 586.25H113.01V586.168C112.979 585.617 112.83 585.191 112.564 584.891C112.299 584.586 111.939 584.434 111.486 584.434ZM119.045 588.318C119.045 588.025 118.934 587.799 118.711 587.639C118.492 587.475 118.107 587.334 117.557 587.217C117.01 587.1 116.574 586.959 116.25 586.795C115.93 586.631 115.691 586.436 115.535 586.209C115.383 585.982 115.307 585.713 115.307 585.4C115.307 584.881 115.525 584.441 115.963 584.082C116.404 583.723 116.967 583.543 117.65 583.543C118.369 583.543 118.951 583.729 119.396 584.1C119.846 584.471 120.07 584.945 120.07 585.523H118.98C118.98 585.227 118.854 584.971 118.6 584.756C118.35 584.541 118.033 584.434 117.65 584.434C117.256 584.434 116.947 584.52 116.725 584.691C116.502 584.863 116.391 585.088 116.391 585.365C116.391 585.627 116.494 585.824 116.701 585.957C116.908 586.09 117.281 586.217 117.82 586.338C118.363 586.459 118.803 586.604 119.139 586.771C119.475 586.939 119.723 587.143 119.883 587.381C120.047 587.615 120.129 587.902 120.129 588.242C120.129 588.809 119.902 589.264 119.449 589.607C118.996 589.947 118.408 590.117 117.686 590.117C117.178 590.117 116.729 590.027 116.338 589.848C115.947 589.668 115.641 589.418 115.418 589.098C115.199 588.773 115.09 588.424 115.09 588.049H116.174C116.193 588.412 116.338 588.701 116.607 588.916C116.881 589.127 117.24 589.232 117.686 589.232C118.096 589.232 118.424 589.15 118.67 588.986C118.92 588.818 119.045 588.596 119.045 588.318Z" fill="black"/>
<rect x="29.5" y="231.5" width="134" height="131" fill="white" stroke="black"/>
<path d="M85.9082 222H84.1504V213.469H85.9082V222ZM89.459 214.102V215.66H90.543V216.902H89.459V220.066C89.459 220.301 89.5039 220.469 89.5938 220.57C89.6836 220.672 89.8555 220.723 90.1094 220.723C90.2969 220.723 90.4629 220.709 90.6074 220.682V221.965C90.2754 222.066 89.9336 222.117 89.582 222.117C88.3945 222.117 87.7891 221.518 87.7656 220.318V216.902H86.8398V215.66H87.7656V214.102H89.459ZM94.4043 222.117C93.4746 222.117 92.7168 221.832 92.1309 221.262C91.5488 220.691 91.2578 219.932 91.2578 218.982V218.818C91.2578 218.182 91.3809 217.613 91.627 217.113C91.873 216.609 92.2207 216.223 92.6699 215.953C93.123 215.68 93.6387 215.543 94.2168 215.543C95.084 215.543 95.7656 215.816 96.2617 216.363C96.7617 216.91 97.0117 217.686 97.0117 218.689V219.381H92.9746C93.0293 219.795 93.1934 220.127 93.4668 220.377C93.7441 220.627 94.0938 220.752 94.5156 220.752C95.168 220.752 95.6777 220.516 96.0449 220.043L96.877 220.975C96.623 221.334 96.2793 221.615 95.8457 221.818C95.4121 222.018 94.9316 222.117 94.4043 222.117ZM94.2109 216.914C93.875 216.914 93.6016 217.027 93.3906 217.254C93.1836 217.48 93.0508 217.805 92.9922 218.227H95.3477V218.092C95.3398 217.717 95.2383 217.428 95.043 217.225C94.8477 217.018 94.5703 216.914 94.2109 216.914ZM99.5664 215.66L99.6191 216.369C100.068 215.818 100.676 215.543 101.441 215.543C102.258 215.543 102.818 215.865 103.123 216.51C103.568 215.865 104.203 215.543 105.027 215.543C105.715 215.543 106.227 215.744 106.562 216.146C106.898 216.545 107.066 217.146 107.066 217.951V222H105.367V217.957C105.367 217.598 105.297 217.336 105.156 217.172C105.016 217.004 104.768 216.92 104.412 216.92C103.904 216.92 103.553 217.162 103.357 217.646L103.363 222H101.67V217.963C101.67 217.596 101.598 217.33 101.453 217.166C101.309 217.002 101.062 216.92 100.715 216.92C100.234 216.92 99.8867 217.119 99.6719 217.518V222H97.9785V215.66H99.5664Z" fill="black"/>
<path d="M78.9746 376.232H75.3945V380H74.2695V371.469H79.5547V372.395H75.3945V375.312H78.9746V376.232ZM83.2344 380.117C82.375 380.117 81.6758 379.836 81.1367 379.273C80.5977 378.707 80.3281 377.951 80.3281 377.006V376.807C80.3281 376.178 80.4473 375.617 80.6855 375.125C80.9277 374.629 81.2637 374.242 81.6934 373.965C82.127 373.684 82.5957 373.543 83.0996 373.543C83.9238 373.543 84.5645 373.814 85.0215 374.357C85.4785 374.9 85.707 375.678 85.707 376.689V377.141H81.4121C81.4277 377.766 81.6094 378.271 81.957 378.658C82.3086 379.041 82.7539 379.232 83.293 379.232C83.6758 379.232 84 379.154 84.2656 378.998C84.5312 378.842 84.7637 378.635 84.9629 378.377L85.625 378.893C85.0938 379.709 84.2969 380.117 83.2344 380.117ZM83.0996 374.434C82.6621 374.434 82.2949 374.594 81.998 374.914C81.7012 375.23 81.5176 375.676 81.4473 376.25H84.623V376.168C84.5918 375.617 84.4434 375.191 84.1777 374.891C83.9121 374.586 83.5527 374.434 83.0996 374.434ZM90.8809 380C90.8184 379.875 90.7676 379.652 90.7285 379.332C90.2246 379.855 89.623 380.117 88.9238 380.117C88.2988 380.117 87.7852 379.941 87.3828 379.59C86.9844 379.234 86.7852 378.785 86.7852 378.242C86.7852 377.582 87.0352 377.07 87.5352 376.707C88.0391 376.34 88.7461 376.156 89.6562 376.156H90.7109V375.658C90.7109 375.279 90.5977 374.979 90.3711 374.756C90.1445 374.529 89.8105 374.416 89.3691 374.416C88.9824 374.416 88.6582 374.514 88.3965 374.709C88.1348 374.904 88.0039 375.141 88.0039 375.418H86.9141C86.9141 375.102 87.0254 374.797 87.248 374.504C87.4746 374.207 87.7793 373.973 88.1621 373.801C88.5488 373.629 88.9727 373.543 89.4336 373.543C90.1641 373.543 90.7363 373.727 91.1504 374.094C91.5645 374.457 91.7793 374.959 91.7949 375.6V378.518C91.7949 379.1 91.8691 379.562 92.0176 379.906V380H90.8809ZM89.082 379.174C89.4219 379.174 89.7441 379.086 90.0488 378.91C90.3535 378.734 90.5742 378.506 90.7109 378.225V376.924H89.8613C88.5332 376.924 87.8691 377.312 87.8691 378.09C87.8691 378.43 87.9824 378.695 88.209 378.887C88.4355 379.078 88.7266 379.174 89.082 379.174ZM94.9648 372.125V373.66H96.1484V374.498H94.9648V378.43C94.9648 378.684 95.0176 378.875 95.123 379.004C95.2285 379.129 95.4082 379.191 95.6621 379.191C95.7871 379.191 95.959 379.168 96.1777 379.121V380C95.8926 380.078 95.6152 380.117 95.3457 380.117C94.8613 380.117 94.4961 379.971 94.25 379.678C94.0039 379.385 93.8809 378.969 93.8809 378.43V374.498H92.7266V373.66H93.8809V372.125H94.9648ZM101.334 379.373C100.912 379.869 100.293 380.117 99.4766 380.117C98.8008 380.117 98.2852 379.922 97.9297 379.531C97.5781 379.137 97.4004 378.555 97.3965 377.785V373.66H98.4805V377.756C98.4805 378.717 98.8711 379.197 99.6523 379.197C100.48 379.197 101.031 378.889 101.305 378.271V373.66H102.389V380H101.357L101.334 379.373ZM107.105 374.633C106.941 374.605 106.764 374.592 106.572 374.592C105.861 374.592 105.379 374.895 105.125 375.5V380H104.041V373.66H105.096L105.113 374.393C105.469 373.826 105.973 373.543 106.625 373.543C106.836 373.543 106.996 373.57 107.105 373.625V374.633ZM110.621 380.117C109.762 380.117 109.062 379.836 108.523 379.273C107.984 378.707 107.715 377.951 107.715 377.006V376.807C107.715 376.178 107.834 375.617 108.072 375.125C108.314 374.629 108.65 374.242 109.08 373.965C109.514 373.684 109.982 373.543 110.486 373.543C111.311 373.543 111.951 373.814 112.408 374.357C112.865 374.9 113.094 375.678 113.094 376.689V377.141H108.799C108.814 377.766 108.996 378.271 109.344 378.658C109.695 379.041 110.141 379.232 110.68 379.232C111.062 379.232 111.387 379.154 111.652 378.998C111.918 378.842 112.15 378.635 112.35 378.377L113.012 378.893C112.48 379.709 111.684 380.117 110.621 380.117ZM110.486 374.434C110.049 374.434 109.682 374.594 109.385 374.914C109.088 375.23 108.904 375.676 108.834 376.25H112.01V376.168C111.979 375.617 111.83 375.191 111.564 374.891C111.299 374.586 110.939 374.434 110.486 374.434ZM118.045 378.318C118.045 378.025 117.934 377.799 117.711 377.639C117.492 377.475 117.107 377.334 116.557 377.217C116.01 377.1 115.574 376.959 115.25 376.795C114.93 376.631 114.691 376.436 114.535 376.209C114.383 375.982 114.307 375.713 114.307 375.4C114.307 374.881 114.525 374.441 114.963 374.082C115.404 373.723 115.967 373.543 116.65 373.543C117.369 373.543 117.951 373.729 118.396 374.1C118.846 374.471 119.07 374.945 119.07 375.523H117.98C117.98 375.227 117.854 374.971 117.6 374.756C117.35 374.541 117.033 374.434 116.65 374.434C116.256 374.434 115.947 374.52 115.725 374.691C115.502 374.863 115.391 375.088 115.391 375.365C115.391 375.627 115.494 375.824 115.701 375.957C115.908 376.09 116.281 376.217 116.82 376.338C117.363 376.459 117.803 376.604 118.139 376.771C118.475 376.939 118.723 377.143 118.883 377.381C119.047 377.615 119.129 377.902 119.129 378.242C119.129 378.809 118.902 379.264 118.449 379.607C117.996 379.947 117.408 380.117 116.686 380.117C116.178 380.117 115.729 380.027 115.338 379.848C114.947 379.668 114.641 379.418 114.418 379.098C114.199 378.773 114.09 378.424 114.09 378.049H115.174C115.193 378.412 115.338 378.701 115.607 378.916C115.881 379.127 116.24 379.232 116.686 379.232C117.096 379.232 117.424 379.15 117.67 378.986C117.92 378.818 118.045 378.596 118.045 378.318Z" fill="black"/>
<rect x="207.5" y="428.5" width="134" height="131" fill="white" stroke="black"/>
<path d="M263.908 419H262.15V410.469H263.908V419ZM267.459 411.102V412.66H268.543V413.902H267.459V417.066C267.459 417.301 267.504 417.469 267.594 417.57C267.684 417.672 267.855 417.723 268.109 417.723C268.297 417.723 268.463 417.709 268.607 417.682V418.965C268.275 419.066 267.934 419.117 267.582 419.117C266.395 419.117 265.789 418.518 265.766 417.318V413.902H264.84V412.66H265.766V411.102H267.459ZM272.404 419.117C271.475 419.117 270.717 418.832 270.131 418.262C269.549 417.691 269.258 416.932 269.258 415.982V415.818C269.258 415.182 269.381 414.613 269.627 414.113C269.873 413.609 270.221 413.223 270.67 412.953C271.123 412.68 271.639 412.543 272.217 412.543C273.084 412.543 273.766 412.816 274.262 413.363C274.762 413.91 275.012 414.686 275.012 415.689V416.381H270.975C271.029 416.795 271.193 417.127 271.467 417.377C271.744 417.627 272.094 417.752 272.516 417.752C273.168 417.752 273.678 417.516 274.045 417.043L274.877 417.975C274.623 418.334 274.279 418.615 273.846 418.818C273.412 419.018 272.932 419.117 272.404 419.117ZM272.211 413.914C271.875 413.914 271.602 414.027 271.391 414.254C271.184 414.48 271.051 414.805 270.992 415.227H273.348V415.092C273.34 414.717 273.238 414.428 273.043 414.225C272.848 414.018 272.57 413.914 272.211 413.914ZM277.566 412.66L277.619 413.369C278.068 412.818 278.676 412.543 279.441 412.543C280.258 412.543 280.818 412.865 281.123 413.51C281.568 412.865 282.203 412.543 283.027 412.543C283.715 412.543 284.227 412.744 284.562 413.146C284.898 413.545 285.066 414.146 285.066 414.951V419H283.367V414.957C283.367 414.598 283.297 414.336 283.156 414.172C283.016 414.004 282.768 413.92 282.412 413.92C281.904 413.92 281.553 414.162 281.357 414.646L281.363 419H279.67V414.963C279.67 414.596 279.598 414.33 279.453 414.166C279.309 414.002 279.062 413.92 278.715 413.92C278.234 413.92 277.887 414.119 277.672 414.518V419H275.979V412.66H277.566Z" fill="black"/>
<path d="M256.975 573.232H253.395V577H252.27V568.469H257.555V569.395H253.395V572.312H256.975V573.232ZM261.234 577.117C260.375 577.117 259.676 576.836 259.137 576.273C258.598 575.707 258.328 574.951 258.328 574.006V573.807C258.328 573.178 258.447 572.617 258.686 572.125C258.928 571.629 259.264 571.242 259.693 570.965C260.127 570.684 260.596 570.543 261.1 570.543C261.924 570.543 262.564 570.814 263.021 571.357C263.479 571.9 263.707 572.678 263.707 573.689V574.141H259.412C259.428 574.766 259.609 575.271 259.957 575.658C260.309 576.041 260.754 576.232 261.293 576.232C261.676 576.232 262 576.154 262.266 575.998C262.531 575.842 262.764 575.635 262.963 575.377L263.625 575.893C263.094 576.709 262.297 577.117 261.234 577.117ZM261.1 571.434C260.662 571.434 260.295 571.594 259.998 571.914C259.701 572.23 259.518 572.676 259.447 573.25H262.623V573.168C262.592 572.617 262.443 572.191 262.178 571.891C261.912 571.586 261.553 571.434 261.1 571.434ZM268.881 577C268.818 576.875 268.768 576.652 268.729 576.332C268.225 576.855 267.623 577.117 266.924 577.117C266.299 577.117 265.785 576.941 265.383 576.59C264.984 576.234 264.785 575.785 264.785 575.242C264.785 574.582 265.035 574.07 265.535 573.707C266.039 573.34 266.746 573.156 267.656 573.156H268.711V572.658C268.711 572.279 268.598 571.979 268.371 571.756C268.145 571.529 267.811 571.416 267.369 571.416C266.982 571.416 266.658 571.514 266.396 571.709C266.135 571.904 266.004 572.141 266.004 572.418H264.914C264.914 572.102 265.025 571.797 265.248 571.504C265.475 571.207 265.779 570.973 266.162 570.801C266.549 570.629 266.973 570.543 267.434 570.543C268.164 570.543 268.736 570.727 269.15 571.094C269.564 571.457 269.779 571.959 269.795 572.6V575.518C269.795 576.1 269.869 576.562 270.018 576.906V577H268.881ZM267.082 576.174C267.422 576.174 267.744 576.086 268.049 575.91C268.354 575.734 268.574 575.506 268.711 575.225V573.924H267.861C266.533 573.924 265.869 574.312 265.869 575.09C265.869 575.43 265.982 575.695 266.209 575.887C266.436 576.078 266.727 576.174 267.082 576.174ZM272.965 569.125V570.66H274.148V571.498H272.965V575.43C272.965 575.684 273.018 575.875 273.123 576.004C273.229 576.129 273.408 576.191 273.662 576.191C273.787 576.191 273.959 576.168 274.178 576.121V577C273.893 577.078 273.615 577.117 273.346 577.117C272.861 577.117 272.496 576.971 272.25 576.678C272.004 576.385 271.881 575.969 271.881 575.43V571.498H270.727V570.66H271.881V569.125H272.965ZM279.334 576.373C278.912 576.869 278.293 577.117 277.477 577.117C276.801 577.117 276.285 576.922 275.93 576.531C275.578 576.137 275.4 575.555 275.396 574.785V570.66H276.48V574.756C276.48 575.717 276.871 576.197 277.652 576.197C278.48 576.197 279.031 575.889 279.305 575.271V570.66H280.389V577H279.357L279.334 576.373ZM285.105 571.633C284.941 571.605 284.764 571.592 284.572 571.592C283.861 571.592 283.379 571.895 283.125 572.5V577H282.041V570.66H283.096L283.113 571.393C283.469 570.826 283.973 570.543 284.625 570.543C284.836 570.543 284.996 570.57 285.105 570.625V571.633ZM288.621 577.117C287.762 577.117 287.062 576.836 286.523 576.273C285.984 575.707 285.715 574.951 285.715 574.006V573.807C285.715 573.178 285.834 572.617 286.072 572.125C286.314 571.629 286.65 571.242 287.08 570.965C287.514 570.684 287.982 570.543 288.486 570.543C289.311 570.543 289.951 570.814 290.408 571.357C290.865 571.9 291.094 572.678 291.094 573.689V574.141H286.799C286.814 574.766 286.996 575.271 287.344 575.658C287.695 576.041 288.141 576.232 288.68 576.232C289.062 576.232 289.387 576.154 289.652 575.998C289.918 575.842 290.15 575.635 290.35 575.377L291.012 575.893C290.48 576.709 289.684 577.117 288.621 577.117ZM288.486 571.434C288.049 571.434 287.682 571.594 287.385 571.914C287.088 572.23 286.904 572.676 286.834 573.25H290.01V573.168C289.979 572.617 289.83 572.191 289.564 571.891C289.299 571.586 288.939 571.434 288.486 571.434ZM296.045 575.318C296.045 575.025 295.934 574.799 295.711 574.639C295.492 574.475 295.107 574.334 294.557 574.217C294.01 574.1 293.574 573.959 293.25 573.795C292.93 573.631 292.691 573.436 292.535 573.209C292.383 572.982 292.307 572.713 292.307 572.4C292.307 571.881 292.525 571.441 292.963 571.082C293.404 570.723 293.967 570.543 294.65 570.543C295.369 570.543 295.951 570.729 296.396 571.1C296.846 571.471 297.07 571.945 297.07 572.523H295.98C295.98 572.227 295.854 571.971 295.6 571.756C295.35 571.541 295.033 571.434 294.65 571.434C294.256 571.434 293.947 571.52 293.725 571.691C293.502 571.863 293.391 572.088 293.391 572.365C293.391 572.627 293.494 572.824 293.701 572.957C293.908 573.09 294.281 573.217 294.82 573.338C295.363 573.459 295.803 573.604 296.139 573.771C296.475 573.939 296.723 574.143 296.883 574.381C297.047 574.615 297.129 574.902 297.129 575.242C297.129 575.809 296.902 576.264 296.449 576.607C295.996 576.947 295.408 577.117 294.686 577.117C294.178 577.117 293.729 577.027 293.338 576.848C292.947 576.668 292.641 576.418 292.418 576.098C292.199 575.773 292.09 575.424 292.09 575.049H293.174C293.193 575.412 293.338 575.701 293.607 575.916C293.881 576.127 294.24 576.232 294.686 576.232C295.096 576.232 295.424 576.15 295.67 575.986C295.92 575.818 296.045 575.596 296.045 575.318Z" fill="black"/>
<rect x="207.5" y="231.5" width="134" height="131" fill="white" stroke="black"/>
<path d="M263.908 222H262.15V213.469H263.908V222ZM267.459 214.102V215.66H268.543V216.902H267.459V220.066C267.459 220.301 267.504 220.469 267.594 220.57C267.684 220.672 267.855 220.723 268.109 220.723C268.297 220.723 268.463 220.709 268.607 220.682V221.965C268.275 222.066 267.934 222.117 267.582 222.117C266.395 222.117 265.789 221.518 265.766 220.318V216.902H264.84V215.66H265.766V214.102H267.459ZM272.404 222.117C271.475 222.117 270.717 221.832 270.131 221.262C269.549 220.691 269.258 219.932 269.258 218.982V218.818C269.258 218.182 269.381 217.613 269.627 217.113C269.873 216.609 270.221 216.223 270.67 215.953C271.123 215.68 271.639 215.543 272.217 215.543C273.084 215.543 273.766 215.816 274.262 216.363C274.762 216.91 275.012 217.686 275.012 218.689V219.381H270.975C271.029 219.795 271.193 220.127 271.467 220.377C271.744 220.627 272.094 220.752 272.516 220.752C273.168 220.752 273.678 220.516 274.045 220.043L274.877 220.975C274.623 221.334 274.279 221.615 273.846 221.818C273.412 222.018 272.932 222.117 272.404 222.117ZM272.211 216.914C271.875 216.914 271.602 217.027 271.391 217.254C271.184 217.48 271.051 217.805 270.992 218.227H273.348V218.092C273.34 217.717 273.238 217.428 273.043 217.225C272.848 217.018 272.57 216.914 272.211 216.914ZM277.566 215.66L277.619 216.369C278.068 215.818 278.676 215.543 279.441 215.543C280.258 215.543 280.818 215.865 281.123 216.51C281.568 215.865 282.203 215.543 283.027 215.543C283.715 215.543 284.227 215.744 284.562 216.146C284.898 216.545 285.066 217.146 285.066 217.951V222H283.367V217.957C283.367 217.598 283.297 217.336 283.156 217.172C283.016 217.004 282.768 216.92 282.412 216.92C281.904 216.92 281.553 217.162 281.357 217.646L281.363 222H279.67V217.963C279.67 217.596 279.598 217.33 279.453 217.166C279.309 217.002 279.062 216.92 278.715 216.92C278.234 216.92 277.887 217.119 277.672 217.518V222H275.979V215.66H277.566Z" fill="black"/>
<path d="M256.975 376.232H253.395V380H252.27V371.469H257.555V372.395H253.395V375.312H256.975V376.232ZM261.234 380.117C260.375 380.117 259.676 379.836 259.137 379.273C258.598 378.707 258.328 377.951 258.328 377.006V376.807C258.328 376.178 258.447 375.617 258.686 375.125C258.928 374.629 259.264 374.242 259.693 373.965C260.127 373.684 260.596 373.543 261.1 373.543C261.924 373.543 262.564 373.814 263.021 374.357C263.479 374.9 263.707 375.678 263.707 376.689V377.141H259.412C259.428 377.766 259.609 378.271 259.957 378.658C260.309 379.041 260.754 379.232 261.293 379.232C261.676 379.232 262 379.154 262.266 378.998C262.531 378.842 262.764 378.635 262.963 378.377L263.625 378.893C263.094 379.709 262.297 380.117 261.234 380.117ZM261.1 374.434C260.662 374.434 260.295 374.594 259.998 374.914C259.701 375.23 259.518 375.676 259.447 376.25H262.623V376.168C262.592 375.617 262.443 375.191 262.178 374.891C261.912 374.586 261.553 374.434 261.1 374.434ZM268.881 380C268.818 379.875 268.768 379.652 268.729 379.332C268.225 379.855 267.623 380.117 266.924 380.117C266.299 380.117 265.785 379.941 265.383 379.59C264.984 379.234 264.785 378.785 264.785 378.242C264.785 377.582 265.035 377.07 265.535 376.707C266.039 376.34 266.746 376.156 267.656 376.156H268.711V375.658C268.711 375.279 268.598 374.979 268.371 374.756C268.145 374.529 267.811 374.416 267.369 374.416C266.982 374.416 266.658 374.514 266.396 374.709C266.135 374.904 266.004 375.141 266.004 375.418H264.914C264.914 375.102 265.025 374.797 265.248 374.504C265.475 374.207 265.779 373.973 266.162 373.801C266.549 373.629 266.973 373.543 267.434 373.543C268.164 373.543 268.736 373.727 269.15 374.094C269.564 374.457 269.779 374.959 269.795 375.6V378.518C269.795 379.1 269.869 379.562 270.018 379.906V380H268.881ZM267.082 379.174C267.422 379.174 267.744 379.086 268.049 378.91C268.354 378.734 268.574 378.506 268.711 378.225V376.924H267.861C266.533 376.924 265.869 377.312 265.869 378.09C265.869 378.43 265.982 378.695 266.209 378.887C266.436 379.078 266.727 379.174 267.082 379.174ZM272.965 372.125V373.66H274.148V374.498H272.965V378.43C272.965 378.684 273.018 378.875 273.123 379.004C273.229 379.129 273.408 379.191 273.662 379.191C273.787 379.191 273.959 379.168 274.178 379.121V380C273.893 380.078 273.615 380.117 273.346 380.117C272.861 380.117 272.496 379.971 272.25 379.678C272.004 379.385 271.881 378.969 271.881 378.43V374.498H270.727V373.66H271.881V372.125H272.965ZM279.334 379.373C278.912 379.869 278.293 380.117 277.477 380.117C276.801 380.117 276.285 379.922 275.93 379.531C275.578 379.137 275.4 378.555 275.396 377.785V373.66H276.48V377.756C276.48 378.717 276.871 379.197 277.652 379.197C278.48 379.197 279.031 378.889 279.305 378.271V373.66H280.389V380H279.357L279.334 379.373ZM285.105 374.633C284.941 374.605 284.764 374.592 284.572 374.592C283.861 374.592 283.379 374.895 283.125 375.5V380H282.041V373.66H283.096L283.113 374.393C283.469 373.826 283.973 373.543 284.625 373.543C284.836 373.543 284.996 373.57 285.105 373.625V374.633ZM288.621 380.117C287.762 380.117 287.062 379.836 286.523 379.273C285.984 378.707 285.715 377.951 285.715 377.006V376.807C285.715 376.178 285.834 375.617 286.072 375.125C286.314 374.629 286.65 374.242 287.08 373.965C287.514 373.684 287.982 373.543 288.486 373.543C289.311 373.543 289.951 373.814 290.408 374.357C290.865 374.9 291.094 375.678 291.094 376.689V377.141H286.799C286.814 377.766 286.996 378.271 287.344 378.658C287.695 379.041 288.141 379.232 288.68 379.232C289.062 379.232 289.387 379.154 289.652 378.998C289.918 378.842 290.15 378.635 290.35 378.377L291.012 378.893C290.48 379.709 289.684 380.117 288.621 380.117ZM288.486 374.434C288.049 374.434 287.682 374.594 287.385 374.914C287.088 375.23 286.904 375.676 286.834 376.25H290.01V376.168C289.979 375.617 289.83 375.191 289.564 374.891C289.299 374.586 288.939 374.434 288.486 374.434ZM296.045 378.318C296.045 378.025 295.934 377.799 295.711 377.639C295.492 377.475 295.107 377.334 294.557 377.217C294.01 377.1 293.574 376.959 293.25 376.795C292.93 376.631 292.691 376.436 292.535 376.209C292.383 375.982 292.307 375.713 292.307 375.4C292.307 374.881 292.525 374.441 292.963 374.082C293.404 373.723 293.967 373.543 294.65 373.543C295.369 373.543 295.951 373.729 296.396 374.1C296.846 374.471 297.07 374.945 297.07 375.523H295.98C295.98 375.227 295.854 374.971 295.6 374.756C295.35 374.541 295.033 374.434 294.65 374.434C294.256 374.434 293.947 374.52 293.725 374.691C293.502 374.863 293.391 375.088 293.391 375.365C293.391 375.627 293.494 375.824 293.701 375.957C293.908 376.09 294.281 376.217 294.82 376.338C295.363 376.459 295.803 376.604 296.139 376.771C296.475 376.939 296.723 377.143 296.883 377.381C297.047 377.615 297.129 377.902 297.129 378.242C297.129 378.809 296.902 379.264 296.449 379.607C295.996 379.947 295.408 380.117 294.686 380.117C294.178 380.117 293.729 380.027 293.338 379.848C292.947 379.668 292.641 379.418 292.418 379.098C292.199 378.773 292.09 378.424 292.09 378.049H293.174C293.193 378.412 293.338 378.701 293.607 378.916C293.881 379.127 294.24 379.232 294.686 379.232C295.096 379.232 295.424 379.15 295.67 378.986C295.92 378.818 296.045 378.596 296.045 378.318Z" fill="black"/>
<line x1="11" y1="190.5" x2="366" y2="190.5" stroke="black"/>
<rect x="-7.5" y="731.5" width="391" height="80" fill="white" stroke="black"/>
<rect x="288.5" y="759.5" width="74" height="25" fill="white" stroke="black"/>
<rect x="196.5" y="759.5" width="74" height="25" fill="white" stroke="black"/>
<path d="M12.5 759.5H86.5V784.5H12.5V759.5Z" fill="white" stroke="black"/>
<rect x="104.5" y="759.5" width="74" height="25" fill="white" stroke="black"/>
<rect x="-15.5" y="110.5" width="270" height="576" fill="white" stroke="black"/>
<rect x="-15.5" y="110.5" width="270" height="96" fill="white" stroke="black"/>
<rect x="-15.5" y="206.5" width="270" height="96" fill="white" stroke="black"/>
<rect x="-15.5" y="302.5" width="270" height="96" fill="white" stroke="black"/>
<rect x="-15.5" y="398.5" width="270" height="96" fill="white" stroke="black"/>
<rect x="-15.5" y="494.5" width="270" height="96" fill="white" stroke="black"/>
<rect x="-15.5" y="590.5" width="270" height="96" fill="white" stroke="black"/>
<path d="M16.1172 149.938L20.5 162.312L24.8594 149.938H29.4766V167H25.9492V162.336L26.3008 154.285L21.6953 167H19.2812L14.6875 154.297L15.0391 162.336V167H11.5234V149.938H16.1172ZM38.1602 167.234C36.3008 167.234 34.7852 166.664 33.6133 165.523C32.4492 164.383 31.8672 162.863 31.8672 160.965V160.637C31.8672 159.363 32.1133 158.227 32.6055 157.227C33.0977 156.219 33.793 155.445 34.6914 154.906C35.5977 154.359 36.6289 154.086 37.7852 154.086C39.5195 154.086 40.8828 154.633 41.875 155.727C42.875 156.82 43.375 158.371 43.375 160.379V161.762H35.3008C35.4102 162.59 35.7383 163.254 36.2852 163.754C36.8398 164.254 37.5391 164.504 38.3828 164.504C39.6875 164.504 40.707 164.031 41.4414 163.086L43.1055 164.949C42.5977 165.668 41.9102 166.23 41.043 166.637C40.1758 167.035 39.2148 167.234 38.1602 167.234ZM37.7734 156.828C37.1016 156.828 36.5547 157.055 36.1328 157.508C35.7188 157.961 35.4531 158.609 35.3359 159.453H40.0469V159.184C40.0312 158.434 39.8281 157.855 39.4375 157.449C39.0469 157.035 38.4922 156.828 37.7734 156.828ZM48.4258 154.32L48.5312 155.785C49.4375 154.652 50.6523 154.086 52.1758 154.086C53.5195 154.086 54.5195 154.48 55.1758 155.27C55.832 156.059 56.168 157.238 56.1836 158.809V167H52.7969V158.891C52.7969 158.172 52.6406 157.652 52.3281 157.332C52.0156 157.004 51.4961 156.84 50.7695 156.84C49.8164 156.84 49.1016 157.246 48.625 158.059V167H45.2383V154.32H48.4258ZM58.3281 155.176L56.7344 154.25C57.4062 153.195 57.7539 152.105 57.7773 150.98V149H60.4727V150.816C60.4727 151.52 60.2773 152.281 59.8867 153.102C59.4961 153.922 58.9766 154.613 58.3281 155.176ZM67.0117 163.496C67.0117 163.082 66.8047 162.758 66.3906 162.523C65.9844 162.281 65.3281 162.066 64.4219 161.879C61.4062 161.246 59.8984 159.965 59.8984 158.035C59.8984 156.91 60.3633 155.973 61.293 155.223C62.2305 154.465 63.4531 154.086 64.9609 154.086C66.5703 154.086 67.8555 154.465 68.8164 155.223C69.7852 155.98 70.2695 156.965 70.2695 158.176H66.8828C66.8828 157.691 66.7266 157.293 66.4141 156.98C66.1016 156.66 65.6133 156.5 64.9492 156.5C64.3789 156.5 63.9375 156.629 63.625 156.887C63.3125 157.145 63.1562 157.473 63.1562 157.871C63.1562 158.246 63.332 158.551 63.6836 158.785C64.043 159.012 64.6445 159.211 65.4883 159.383C66.332 159.547 67.043 159.734 67.6211 159.945C69.4102 160.602 70.3047 161.738 70.3047 163.355C70.3047 164.512 69.8086 165.449 68.8164 166.168C67.8242 166.879 66.543 167.234 64.9727 167.234C63.9102 167.234 62.9648 167.047 62.1367 166.672C61.3164 166.289 60.6719 165.77 60.2031 165.113C59.7344 164.449 59.5 163.734 59.5 162.969H62.7109C62.7422 163.57 62.9648 164.031 63.3789 164.352C63.793 164.672 64.3477 164.832 65.043 164.832C65.6914 164.832 66.1797 164.711 66.5078 164.469C66.8438 164.219 67.0117 163.895 67.0117 163.496ZM92.0898 161.316C91.957 163.152 91.2773 164.598 90.0508 165.652C88.832 166.707 87.2227 167.234 85.2227 167.234C83.0352 167.234 81.3125 166.5 80.0547 165.031C78.8047 163.555 78.1797 161.531 78.1797 158.961V157.918C78.1797 156.277 78.4688 154.832 79.0469 153.582C79.625 152.332 80.4492 151.375 81.5195 150.711C82.5977 150.039 83.8477 149.703 85.2695 149.703C87.2383 149.703 88.8242 150.23 90.0273 151.285C91.2305 152.34 91.9258 153.82 92.1133 155.727H88.5977C88.5117 154.625 88.2031 153.828 87.6719 153.336C87.1484 152.836 86.3477 152.586 85.2695 152.586C84.0977 152.586 83.2188 153.008 82.6328 153.852C82.0547 154.688 81.7578 155.988 81.7422 157.754V159.043C81.7422 160.887 82.0195 162.234 82.5742 163.086C83.1367 163.938 84.0195 164.363 85.2227 164.363C86.3086 164.363 87.1172 164.117 87.6484 163.625C88.1875 163.125 88.4961 162.355 88.5742 161.316H92.0898ZM97.75 167H94.3516V149H97.75V167ZM100.023 160.543C100.023 159.285 100.266 158.164 100.75 157.18C101.234 156.195 101.93 155.434 102.836 154.895C103.75 154.355 104.809 154.086 106.012 154.086C107.723 154.086 109.117 154.609 110.195 155.656C111.281 156.703 111.887 158.125 112.012 159.922L112.035 160.789C112.035 162.734 111.492 164.297 110.406 165.477C109.32 166.648 107.863 167.234 106.035 167.234C104.207 167.234 102.746 166.648 101.652 165.477C100.566 164.305 100.023 162.711 100.023 160.695V160.543ZM103.41 160.789C103.41 161.992 103.637 162.914 104.09 163.555C104.543 164.188 105.191 164.504 106.035 164.504C106.855 164.504 107.496 164.191 107.957 163.566C108.418 162.934 108.648 161.926 108.648 160.543C108.648 159.363 108.418 158.449 107.957 157.801C107.496 157.152 106.848 156.828 106.012 156.828C105.184 156.828 104.543 157.152 104.09 157.801C103.637 158.441 103.41 159.438 103.41 160.789ZM118.176 151.203V154.32H120.344V156.805H118.176V163.133C118.176 163.602 118.266 163.938 118.445 164.141C118.625 164.344 118.969 164.445 119.477 164.445C119.852 164.445 120.184 164.418 120.473 164.363V166.93C119.809 167.133 119.125 167.234 118.422 167.234C116.047 167.234 114.836 166.035 114.789 163.637V156.805H112.938V154.32H114.789V151.203H118.176ZM125.535 155.703C126.434 154.625 127.562 154.086 128.922 154.086C131.672 154.086 133.066 155.684 133.105 158.879V167H129.719V158.973C129.719 158.246 129.562 157.711 129.25 157.367C128.938 157.016 128.418 156.84 127.691 156.84C126.699 156.84 125.98 157.223 125.535 157.988V167H122.148V149H125.535V155.703ZM139.234 167H135.836V154.32H139.234V167ZM135.637 151.039C135.637 150.531 135.805 150.113 136.141 149.785C136.484 149.457 136.949 149.293 137.535 149.293C138.113 149.293 138.574 149.457 138.918 149.785C139.262 150.113 139.434 150.531 139.434 151.039C139.434 151.555 139.258 151.977 138.906 152.305C138.562 152.633 138.105 152.797 137.535 152.797C136.965 152.797 136.504 152.633 136.152 152.305C135.809 151.977 135.637 151.555 135.637 151.039ZM145.152 154.32L145.258 155.785C146.164 154.652 147.379 154.086 148.902 154.086C150.246 154.086 151.246 154.48 151.902 155.27C152.559 156.059 152.895 157.238 152.91 158.809V167H149.523V158.891C149.523 158.172 149.367 157.652 149.055 157.332C148.742 157.004 148.223 156.84 147.496 156.84C146.543 156.84 145.828 157.246 145.352 158.059V167H141.965V154.32H145.152ZM154.996 160.566C154.996 158.621 155.457 157.055 156.379 155.867C157.309 154.68 158.559 154.086 160.129 154.086C161.52 154.086 162.602 154.562 163.375 155.516L163.516 154.32H166.586V166.578C166.586 167.688 166.332 168.652 165.824 169.473C165.324 170.293 164.617 170.918 163.703 171.348C162.789 171.777 161.719 171.992 160.492 171.992C159.562 171.992 158.656 171.805 157.773 171.43C156.891 171.062 156.223 170.586 155.77 170L157.27 167.938C158.113 168.883 159.137 169.355 160.34 169.355C161.238 169.355 161.938 169.113 162.438 168.629C162.938 168.152 163.188 167.473 163.188 166.59V165.91C162.406 166.793 161.379 167.234 160.105 167.234C158.582 167.234 157.348 166.641 156.402 165.453C155.465 164.258 154.996 162.676 154.996 160.707V160.566ZM158.383 160.812C158.383 161.961 158.613 162.863 159.074 163.52C159.535 164.168 160.168 164.492 160.973 164.492C162.004 164.492 162.742 164.105 163.188 163.332V158C162.734 157.227 162.004 156.84 160.996 156.84C160.184 156.84 159.543 157.172 159.074 157.836C158.613 158.5 158.383 159.492 158.383 160.812Z" fill="black"/>
<path d="M24.918 356.316C24.7852 358.152 24.1055 359.598 22.8789 360.652C21.6602 361.707 20.0508 362.234 18.0508 362.234C15.8633 362.234 14.1406 361.5 12.8828 360.031C11.6328 358.555 11.0078 356.531 11.0078 353.961V352.918C11.0078 351.277 11.2969 349.832 11.875 348.582C12.4531 347.332 13.2773 346.375 14.3477 345.711C15.4258 345.039 16.6758 344.703 18.0977 344.703C20.0664 344.703 21.6523 345.23 22.8555 346.285C24.0586 347.34 24.7539 348.82 24.9414 350.727H21.4258C21.3398 349.625 21.0312 348.828 20.5 348.336C19.9766 347.836 19.1758 347.586 18.0977 347.586C16.9258 347.586 16.0469 348.008 15.4609 348.852C14.8828 349.688 14.5859 350.988 14.5703 352.754V354.043C14.5703 355.887 14.8477 357.234 15.4023 358.086C15.9648 358.938 16.8477 359.363 18.0508 359.363C19.1367 359.363 19.9453 359.117 20.4766 358.625C21.0156 358.125 21.3242 357.355 21.4023 356.316H24.918ZM30.3086 350.703C31.207 349.625 32.3359 349.086 33.6953 349.086C36.4453 349.086 37.8398 350.684 37.8789 353.879V362H34.4922V353.973C34.4922 353.246 34.3359 352.711 34.0234 352.367C33.7109 352.016 33.1914 351.84 32.4648 351.84C31.4727 351.84 30.7539 352.223 30.3086 352.988V362H26.9219V344H30.3086V350.703ZM44.0078 362H40.6094V349.32H44.0078V362ZM40.4102 346.039C40.4102 345.531 40.5781 345.113 40.9141 344.785C41.2578 344.457 41.7227 344.293 42.3086 344.293C42.8867 344.293 43.3477 344.457 43.6914 344.785C44.0352 345.113 44.207 345.531 44.207 346.039C44.207 346.555 44.0312 346.977 43.6797 347.305C43.3359 347.633 42.8789 347.797 42.3086 347.797C41.7383 347.797 41.2773 347.633 40.9258 347.305C40.582 346.977 40.4102 346.555 40.4102 346.039ZM50.3828 362H46.9844V344H50.3828V362ZM52.6562 355.566C52.6562 353.59 53.0977 352.016 53.9805 350.844C54.8711 349.672 56.0859 349.086 57.625 349.086C58.8594 349.086 59.8789 349.547 60.6836 350.469V344H64.082V362H61.0234L60.8594 360.652C60.0156 361.707 58.9297 362.234 57.6016 362.234C56.1094 362.234 54.9102 361.648 54.0039 360.477C53.1055 359.297 52.6562 357.66 52.6562 355.566ZM56.043 355.812C56.043 357 56.25 357.91 56.6641 358.543C57.0781 359.176 57.6797 359.492 58.4688 359.492C59.5156 359.492 60.2539 359.051 60.6836 358.168V353.164C60.2617 352.281 59.5312 351.84 58.4922 351.84C56.8594 351.84 56.043 353.164 56.043 355.812ZM73.832 352.496C73.3711 352.434 72.9648 352.402 72.6133 352.402C71.332 352.402 70.4922 352.836 70.0938 353.703V362H66.707V349.32H69.9062L70 350.832C70.6797 349.668 71.6211 349.086 72.8242 349.086C73.1992 349.086 73.5508 349.137 73.8789 349.238L73.832 352.496ZM81.0742 362.234C79.2148 362.234 77.6992 361.664 76.5273 360.523C75.3633 359.383 74.7812 357.863 74.7812 355.965V355.637C74.7812 354.363 75.0273 353.227 75.5195 352.227C76.0117 351.219 76.707 350.445 77.6055 349.906C78.5117 349.359 79.543 349.086 80.6992 349.086C82.4336 349.086 83.7969 349.633 84.7891 350.727C85.7891 351.82 86.2891 353.371 86.2891 355.379V356.762H78.2148C78.3242 357.59 78.6523 358.254 79.1992 358.754C79.7539 359.254 80.4531 359.504 81.2969 359.504C82.6016 359.504 83.6211 359.031 84.3555 358.086L86.0195 359.949C85.5117 360.668 84.8242 361.23 83.957 361.637C83.0898 362.035 82.1289 362.234 81.0742 362.234ZM80.6875 351.828C80.0156 351.828 79.4688 352.055 79.0469 352.508C78.6328 352.961 78.3672 353.609 78.25 354.453H82.9609V354.184C82.9453 353.434 82.7422 352.855 82.3516 352.449C81.9609 352.035 81.4062 351.828 80.6875 351.828ZM91.3398 349.32L91.4453 350.785C92.3516 349.652 93.5664 349.086 95.0898 349.086C96.4336 349.086 97.4336 349.48 98.0898 350.27C98.7461 351.059 99.082 352.238 99.0977 353.809V362H95.7109V353.891C95.7109 353.172 95.5547 352.652 95.2422 352.332C94.9297 352.004 94.4102 351.84 93.6836 351.84C92.7305 351.84 92.0156 352.246 91.5391 353.059V362H88.1523V349.32H91.3398ZM101.242 350.176L99.6484 349.25C100.32 348.195 100.668 347.105 100.691 345.98V344H103.387V345.816C103.387 346.52 103.191 347.281 102.801 348.102C102.41 348.922 101.891 349.613 101.242 350.176ZM109.926 358.496C109.926 358.082 109.719 357.758 109.305 357.523C108.898 357.281 108.242 357.066 107.336 356.879C104.32 356.246 102.812 354.965 102.812 353.035C102.812 351.91 103.277 350.973 104.207 350.223C105.145 349.465 106.367 349.086 107.875 349.086C109.484 349.086 110.77 349.465 111.73 350.223C112.699 350.98 113.184 351.965 113.184 353.176H109.797C109.797 352.691 109.641 352.293 109.328 351.98C109.016 351.66 108.527 351.5 107.863 351.5C107.293 351.5 106.852 351.629 106.539 351.887C106.227 352.145 106.07 352.473 106.07 352.871C106.07 353.246 106.246 353.551 106.598 353.785C106.957 354.012 107.559 354.211 108.402 354.383C109.246 354.547 109.957 354.734 110.535 354.945C112.324 355.602 113.219 356.738 113.219 358.355C113.219 359.512 112.723 360.449 111.73 361.168C110.738 361.879 109.457 362.234 107.887 362.234C106.824 362.234 105.879 362.047 105.051 361.672C104.23 361.289 103.586 360.77 103.117 360.113C102.648 359.449 102.414 358.734 102.414 357.969H105.625C105.656 358.57 105.879 359.031 106.293 359.352C106.707 359.672 107.262 359.832 107.957 359.832C108.605 359.832 109.094 359.711 109.422 359.469C109.758 359.219 109.926 358.895 109.926 358.496ZM135.004 356.316C134.871 358.152 134.191 359.598 132.965 360.652C131.746 361.707 130.137 362.234 128.137 362.234C125.949 362.234 124.227 361.5 122.969 360.031C121.719 358.555 121.094 356.531 121.094 353.961V352.918C121.094 351.277 121.383 349.832 121.961 348.582C122.539 347.332 123.363 346.375 124.434 345.711C125.512 345.039 126.762 344.703 128.184 344.703C130.152 344.703 131.738 345.23 132.941 346.285C134.145 347.34 134.84 348.82 135.027 350.727H131.512C131.426 349.625 131.117 348.828 130.586 348.336C130.062 347.836 129.262 347.586 128.184 347.586C127.012 347.586 126.133 348.008 125.547 348.852C124.969 349.688 124.672 350.988 124.656 352.754V354.043C124.656 355.887 124.934 357.234 125.488 358.086C126.051 358.938 126.934 359.363 128.137 359.363C129.223 359.363 130.031 359.117 130.562 358.625C131.102 358.125 131.41 357.355 131.488 356.316H135.004ZM140.664 362H137.266V344H140.664V362ZM142.938 355.543C142.938 354.285 143.18 353.164 143.664 352.18C144.148 351.195 144.844 350.434 145.75 349.895C146.664 349.355 147.723 349.086 148.926 349.086C150.637 349.086 152.031 349.609 153.109 350.656C154.195 351.703 154.801 353.125 154.926 354.922L154.949 355.789C154.949 357.734 154.406 359.297 153.32 360.477C152.234 361.648 150.777 362.234 148.949 362.234C147.121 362.234 145.66 361.648 144.566 360.477C143.48 359.305 142.938 357.711 142.938 355.695V355.543ZM146.324 355.789C146.324 356.992 146.551 357.914 147.004 358.555C147.457 359.188 148.105 359.504 148.949 359.504C149.77 359.504 150.41 359.191 150.871 358.566C151.332 357.934 151.562 356.926 151.562 355.543C151.562 354.363 151.332 353.449 150.871 352.801C150.41 352.152 149.762 351.828 148.926 351.828C148.098 351.828 147.457 352.152 147.004 352.801C146.551 353.441 146.324 354.438 146.324 355.789ZM161.09 346.203V349.32H163.258V351.805H161.09V358.133C161.09 358.602 161.18 358.938 161.359 359.141C161.539 359.344 161.883 359.445 162.391 359.445C162.766 359.445 163.098 359.418 163.387 359.363V361.93C162.723 362.133 162.039 362.234 161.336 362.234C158.961 362.234 157.75 361.035 157.703 358.637V351.805H155.852V349.32H157.703V346.203H161.09ZM168.449 350.703C169.348 349.625 170.477 349.086 171.836 349.086C174.586 349.086 175.98 350.684 176.02 353.879V362H172.633V353.973C172.633 353.246 172.477 352.711 172.164 352.367C171.852 352.016 171.332 351.84 170.605 351.84C169.613 351.84 168.895 352.223 168.449 352.988V362H165.062V344H168.449V350.703ZM182.148 362H178.75V349.32H182.148V362ZM178.551 346.039C178.551 345.531 178.719 345.113 179.055 344.785C179.398 344.457 179.863 344.293 180.449 344.293C181.027 344.293 181.488 344.457 181.832 344.785C182.176 345.113 182.348 345.531 182.348 346.039C182.348 346.555 182.172 346.977 181.82 347.305C181.477 347.633 181.02 347.797 180.449 347.797C179.879 347.797 179.418 347.633 179.066 347.305C178.723 346.977 178.551 346.555 178.551 346.039ZM188.066 349.32L188.172 350.785C189.078 349.652 190.293 349.086 191.816 349.086C193.16 349.086 194.16 349.48 194.816 350.27C195.473 351.059 195.809 352.238 195.824 353.809V362H192.438V353.891C192.438 353.172 192.281 352.652 191.969 352.332C191.656 352.004 191.137 351.84 190.41 351.84C189.457 351.84 188.742 352.246 188.266 353.059V362H184.879V349.32H188.066ZM197.91 355.566C197.91 353.621 198.371 352.055 199.293 350.867C200.223 349.68 201.473 349.086 203.043 349.086C204.434 349.086 205.516 349.562 206.289 350.516L206.43 349.32H209.5V361.578C209.5 362.688 209.246 363.652 208.738 364.473C208.238 365.293 207.531 365.918 206.617 366.348C205.703 366.777 204.633 366.992 203.406 366.992C202.477 366.992 201.57 366.805 200.688 366.43C199.805 366.062 199.137 365.586 198.684 365L200.184 362.938C201.027 363.883 202.051 364.355 203.254 364.355C204.152 364.355 204.852 364.113 205.352 363.629C205.852 363.152 206.102 362.473 206.102 361.59V360.91C205.32 361.793 204.293 362.234 203.02 362.234C201.496 362.234 200.262 361.641 199.316 360.453C198.379 359.258 197.91 357.676 197.91 355.707V355.566ZM201.297 355.812C201.297 356.961 201.527 357.863 201.988 358.52C202.449 359.168 203.082 359.492 203.887 359.492C204.918 359.492 205.656 359.105 206.102 358.332V353C205.648 352.227 204.918 351.84 203.91 351.84C203.098 351.84 202.457 352.172 201.988 352.836C201.527 353.5 201.297 354.492 201.297 355.812Z" fill="black"/>
<path d="M20.3711 547.523C20.3711 546.859 20.1367 546.352 19.668 546C19.1992 545.641 18.3555 545.266 17.1367 544.875C15.918 544.477 14.9531 544.086 14.2422 543.703C12.3047 542.656 11.3359 541.246 11.3359 539.473C11.3359 538.551 11.5938 537.73 12.1094 537.012C12.6328 536.285 13.3789 535.719 14.3477 535.312C15.3242 534.906 16.418 534.703 17.6289 534.703C18.8477 534.703 19.9336 534.926 20.8867 535.371C21.8398 535.809 22.5781 536.43 23.1016 537.234C23.6328 538.039 23.8984 538.953 23.8984 539.977H20.3828C20.3828 539.195 20.1367 538.59 19.6445 538.16C19.1523 537.723 18.4609 537.504 17.5703 537.504C16.7109 537.504 16.043 537.688 15.5664 538.055C15.0898 538.414 14.8516 538.891 14.8516 539.484C14.8516 540.039 15.1289 540.504 15.6836 540.879C16.2461 541.254 17.0703 541.605 18.1562 541.934C20.1562 542.535 21.6133 543.281 22.5273 544.172C23.4414 545.062 23.8984 546.172 23.8984 547.5C23.8984 548.977 23.3398 550.137 22.2227 550.98C21.1055 551.816 19.6016 552.234 17.7109 552.234C16.3984 552.234 15.2031 551.996 14.125 551.52C13.0469 551.035 12.2227 550.375 11.6523 549.539C11.0898 548.703 10.8086 547.734 10.8086 546.633H14.3359C14.3359 548.516 15.4609 549.457 17.7109 549.457C18.5469 549.457 19.1992 549.289 19.668 548.953C20.1367 548.609 20.3711 548.133 20.3711 547.523ZM33.4141 552C33.2578 551.695 33.1445 551.316 33.0742 550.863C32.2539 551.777 31.1875 552.234 29.875 552.234C28.6328 552.234 27.6016 551.875 26.7812 551.156C25.9688 550.438 25.5625 549.531 25.5625 548.438C25.5625 547.094 26.0586 546.062 27.0508 545.344C28.0508 544.625 29.4922 544.262 31.375 544.254H32.9336V543.527C32.9336 542.941 32.7812 542.473 32.4766 542.121C32.1797 541.77 31.707 541.594 31.0586 541.594C30.4883 541.594 30.0391 541.73 29.7109 542.004C29.3906 542.277 29.2305 542.652 29.2305 543.129H25.8438C25.8438 542.395 26.0703 541.715 26.5234 541.09C26.9766 540.465 27.6172 539.977 28.4453 539.625C29.2734 539.266 30.2031 539.086 31.2344 539.086C32.7969 539.086 34.0352 539.48 34.9492 540.27C35.8711 541.051 36.332 542.152 36.332 543.574V549.07C36.3398 550.273 36.5078 551.184 36.8359 551.801V552H33.4141ZM30.6133 549.645C31.1133 549.645 31.5742 549.535 31.9961 549.316C32.418 549.09 32.7305 548.789 32.9336 548.414V546.234H31.668C29.9727 546.234 29.0703 546.82 28.9609 547.992L28.9492 548.191C28.9492 548.613 29.0977 548.961 29.3945 549.234C29.6914 549.508 30.0977 549.645 30.6133 549.645ZM42.5078 552H39.1094V534H42.5078V552ZM51.1445 552.234C49.2852 552.234 47.7695 551.664 46.5977 550.523C45.4336 549.383 44.8516 547.863 44.8516 545.965V545.637C44.8516 544.363 45.0977 543.227 45.5898 542.227C46.082 541.219 46.7773 540.445 47.6758 539.906C48.582 539.359 49.6133 539.086 50.7695 539.086C52.5039 539.086 53.8672 539.633 54.8594 540.727C55.8594 541.82 56.3594 543.371 56.3594 545.379V546.762H48.2852C48.3945 547.59 48.7227 548.254 49.2695 548.754C49.8242 549.254 50.5234 549.504 51.3672 549.504C52.6719 549.504 53.6914 549.031 54.4258 548.086L56.0898 549.949C55.582 550.668 54.8945 551.23 54.0273 551.637C53.1602 552.035 52.1992 552.234 51.1445 552.234ZM50.7578 541.828C50.0859 541.828 49.5391 542.055 49.1172 542.508C48.7031 542.961 48.4375 543.609 48.3203 544.453H53.0312V544.184C53.0156 543.434 52.8125 542.855 52.4219 542.449C52.0312 542.035 51.4766 541.828 50.7578 541.828Z" fill="black"/>
<path d="M16.1172 629.938L20.5 642.312L24.8594 629.938H29.4766V647H25.9492V642.336L26.3008 634.285L21.6953 647H19.2812L14.6875 634.297L15.0391 642.336V647H11.5234V629.938H16.1172ZM37.0586 642.207L39.4023 634.32H43.0352L37.9375 648.969L37.6562 649.637C36.8984 651.293 35.6484 652.121 33.9062 652.121C33.4141 652.121 32.9141 652.047 32.4062 651.898V649.332L32.9219 649.344C33.5625 649.344 34.0391 649.246 34.3516 649.051C34.6719 648.855 34.9219 648.531 35.1016 648.078L35.5 647.035L31.0586 634.32H34.7031L37.0586 642.207ZM63.9648 641.316C63.832 643.152 63.1523 644.598 61.9258 645.652C60.707 646.707 59.0977 647.234 57.0977 647.234C54.9102 647.234 53.1875 646.5 51.9297 645.031C50.6797 643.555 50.0547 641.531 50.0547 638.961V637.918C50.0547 636.277 50.3438 634.832 50.9219 633.582C51.5 632.332 52.3242 631.375 53.3945 630.711C54.4727 630.039 55.7227 629.703 57.1445 629.703C59.1133 629.703 60.6992 630.23 61.9023 631.285C63.1055 632.34 63.8008 633.82 63.9883 635.727H60.4727C60.3867 634.625 60.0781 633.828 59.5469 633.336C59.0234 632.836 58.2227 632.586 57.1445 632.586C55.9727 632.586 55.0938 633.008 54.5078 633.852C53.9297 634.688 53.6328 635.988 53.6172 637.754V639.043C53.6172 640.887 53.8945 642.234 54.4492 643.086C55.0117 643.938 55.8945 644.363 57.0977 644.363C58.1836 644.363 58.9922 644.117 59.5234 643.625C60.0625 643.125 60.3711 642.355 60.4492 641.316H63.9648ZM73.3984 647C73.2422 646.695 73.1289 646.316 73.0586 645.863C72.2383 646.777 71.1719 647.234 69.8594 647.234C68.6172 647.234 67.5859 646.875 66.7656 646.156C65.9531 645.438 65.5469 644.531 65.5469 643.438C65.5469 642.094 66.043 641.062 67.0352 640.344C68.0352 639.625 69.4766 639.262 71.3594 639.254H72.918V638.527C72.918 637.941 72.7656 637.473 72.4609 637.121C72.1641 636.77 71.6914 636.594 71.043 636.594C70.4727 636.594 70.0234 636.73 69.6953 637.004C69.375 637.277 69.2148 637.652 69.2148 638.129H65.8281C65.8281 637.395 66.0547 636.715 66.5078 636.09C66.9609 635.465 67.6016 634.977 68.4297 634.625C69.2578 634.266 70.1875 634.086 71.2188 634.086C72.7812 634.086 74.0195 634.48 74.9336 635.27C75.8555 636.051 76.3164 637.152 76.3164 638.574V644.07C76.3242 645.273 76.4922 646.184 76.8203 646.801V647H73.3984ZM70.5977 644.645C71.0977 644.645 71.5586 644.535 71.9805 644.316C72.4023 644.09 72.7148 643.789 72.918 643.414V641.234H71.6523C69.957 641.234 69.0547 641.82 68.9453 642.992L68.9336 643.191C68.9336 643.613 69.082 643.961 69.3789 644.234C69.6758 644.508 70.082 644.645 70.5977 644.645ZM86.043 637.496C85.582 637.434 85.1758 637.402 84.8242 637.402C83.543 637.402 82.7031 637.836 82.3047 638.703V647H78.918V634.32H82.1172L82.2109 635.832C82.8906 634.668 83.832 634.086 85.0352 634.086C85.4102 634.086 85.7617 634.137 86.0898 634.238L86.043 637.496ZM92.3242 631.203V634.32H94.4922V636.805H92.3242V643.133C92.3242 643.602 92.4141 643.938 92.5938 644.141C92.7734 644.344 93.1172 644.445 93.625 644.445C94 644.445 94.332 644.418 94.6211 644.363V646.93C93.957 647.133 93.2734 647.234 92.5703 647.234C90.1953 647.234 88.9844 646.035 88.9375 643.637V636.805H87.0859V634.32H88.9375V631.203H92.3242Z" fill="black"/>
<path d="M25.0234 452.844C24.3906 453.602 23.4961 454.191 22.3398 454.613C21.1836 455.027 19.9023 455.234 18.4961 455.234C17.0195 455.234 15.7227 454.914 14.6055 454.273C13.4961 453.625 12.6367 452.688 12.0273 451.461C11.4258 450.234 11.1172 448.793 11.1016 447.137V445.977C11.1016 444.273 11.3867 442.801 11.957 441.559C12.5352 440.309 13.3633 439.355 14.4414 438.699C15.5273 438.035 16.7969 437.703 18.25 437.703C20.2734 437.703 21.8555 438.188 22.9961 439.156C24.1367 440.117 24.8125 441.52 25.0234 443.363H21.6016C21.4453 442.387 21.0977 441.672 20.5586 441.219C20.0273 440.766 19.293 440.539 18.3555 440.539C17.1602 440.539 16.25 440.988 15.625 441.887C15 442.785 14.6836 444.121 14.6758 445.895V446.984C14.6758 448.773 15.0156 450.125 15.6953 451.039C16.375 451.953 17.3711 452.41 18.6836 452.41C20.0039 452.41 20.9453 452.129 21.5078 451.566V448.625H18.3086V446.035H25.0234V452.844ZM31.2344 455H27.8359V442.32H31.2344V455ZM27.6367 439.039C27.6367 438.531 27.8047 438.113 28.1406 437.785C28.4844 437.457 28.9492 437.293 29.5352 437.293C30.1133 437.293 30.5742 437.457 30.918 437.785C31.2617 438.113 31.4336 438.531 31.4336 439.039C31.4336 439.555 31.2578 439.977 30.9062 440.305C30.5625 440.633 30.1055 440.797 29.5352 440.797C28.9648 440.797 28.5039 440.633 28.1523 440.305C27.8086 439.977 27.6367 439.555 27.6367 439.039ZM34.9609 455V444.805H33.0742V442.32H34.9609V441.242C34.9609 439.82 35.3672 438.719 36.1797 437.938C37 437.148 38.1445 436.754 39.6133 436.754C40.082 436.754 40.6562 436.832 41.3359 436.988L41.3008 439.613C41.0195 439.543 40.6758 439.508 40.2695 439.508C38.9961 439.508 38.3594 440.105 38.3594 441.301V442.32H40.8789V444.805H38.3594V455H34.9609ZM46.6914 439.203V442.32H48.8594V444.805H46.6914V451.133C46.6914 451.602 46.7812 451.938 46.9609 452.141C47.1406 452.344 47.4844 452.445 47.9922 452.445C48.3672 452.445 48.6992 452.418 48.9883 452.363V454.93C48.3242 455.133 47.6406 455.234 46.9375 455.234C44.5625 455.234 43.3516 454.035 43.3047 451.637V444.805H41.4531V442.32H43.3047V439.203H46.6914ZM57.6133 451.496C57.6133 451.082 57.4062 450.758 56.9922 450.523C56.5859 450.281 55.9297 450.066 55.0234 449.879C52.0078 449.246 50.5 447.965 50.5 446.035C50.5 444.91 50.9648 443.973 51.8945 443.223C52.832 442.465 54.0547 442.086 55.5625 442.086C57.1719 442.086 58.457 442.465 59.418 443.223C60.3867 443.98 60.8711 444.965 60.8711 446.176H57.4844C57.4844 445.691 57.3281 445.293 57.0156 444.98C56.7031 444.66 56.2148 444.5 55.5508 444.5C54.9805 444.5 54.5391 444.629 54.2266 444.887C53.9141 445.145 53.7578 445.473 53.7578 445.871C53.7578 446.246 53.9336 446.551 54.2852 446.785C54.6445 447.012 55.2461 447.211 56.0898 447.383C56.9336 447.547 57.6445 447.734 58.2227 447.945C60.0117 448.602 60.9062 449.738 60.9062 451.355C60.9062 452.512 60.4102 453.449 59.418 454.168C58.4258 454.879 57.1445 455.234 55.5742 455.234C54.5117 455.234 53.5664 455.047 52.7383 454.672C51.918 454.289 51.2734 453.77 50.8047 453.113C50.3359 452.449 50.1016 451.734 50.1016 450.969H53.3125C53.3438 451.57 53.5664 452.031 53.9805 452.352C54.3945 452.672 54.9492 452.832 55.6445 452.832C56.293 452.832 56.7812 452.711 57.1094 452.469C57.4453 452.219 57.6133 451.895 57.6133 451.496Z" fill="black"/>
<path d="M24.8125 257.078L27.1094 244.938H30.6133L26.8281 262H23.2891L20.5117 250.586L17.7344 262H14.1953L10.4102 244.938H13.9141L16.2227 257.055L19.0352 244.938H22.0117L24.8125 257.078ZM31.3984 255.543C31.3984 254.285 31.6406 253.164 32.125 252.18C32.6094 251.195 33.3047 250.434 34.2109 249.895C35.125 249.355 36.1836 249.086 37.3867 249.086C39.0977 249.086 40.4922 249.609 41.5703 250.656C42.6562 251.703 43.2617 253.125 43.3867 254.922L43.4102 255.789C43.4102 257.734 42.8672 259.297 41.7812 260.477C40.6953 261.648 39.2383 262.234 37.4102 262.234C35.582 262.234 34.1211 261.648 33.0273 260.477C31.9414 259.305 31.3984 257.711 31.3984 255.695V255.543ZM34.7852 255.789C34.7852 256.992 35.0117 257.914 35.4648 258.555C35.918 259.188 36.5664 259.504 37.4102 259.504C38.2305 259.504 38.8711 259.191 39.332 258.566C39.793 257.934 40.0234 256.926 40.0234 255.543C40.0234 254.363 39.793 253.449 39.332 252.801C38.8711 252.152 38.2227 251.828 37.3867 251.828C36.5586 251.828 35.918 252.152 35.4648 252.801C35.0117 253.441 34.7852 254.438 34.7852 255.789ZM48.6719 249.32L48.7773 250.738C49.6758 249.637 50.8906 249.086 52.4219 249.086C54.0547 249.086 55.1758 249.73 55.7852 251.02C56.6758 249.73 57.9453 249.086 59.5938 249.086C60.9688 249.086 61.9922 249.488 62.6641 250.293C63.3359 251.09 63.6719 252.293 63.6719 253.902V262H60.2734V253.914C60.2734 253.195 60.1328 252.672 59.8516 252.344C59.5703 252.008 59.0742 251.84 58.3633 251.84C57.3477 251.84 56.6445 252.324 56.2539 253.293L56.2656 262H52.8789V253.926C52.8789 253.191 52.7344 252.66 52.4453 252.332C52.1562 252.004 51.6641 251.84 50.9688 251.84C50.0078 251.84 49.3125 252.238 48.8828 253.035V262H45.4961V249.32H48.6719ZM72.1211 262.234C70.2617 262.234 68.7461 261.664 67.5742 260.523C66.4102 259.383 65.8281 257.863 65.8281 255.965V255.637C65.8281 254.363 66.0742 253.227 66.5664 252.227C67.0586 251.219 67.7539 250.445 68.6523 249.906C69.5586 249.359 70.5898 249.086 71.7461 249.086C73.4805 249.086 74.8438 249.633 75.8359 250.727C76.8359 251.82 77.3359 253.371 77.3359 255.379V256.762H69.2617C69.3711 257.59 69.6992 258.254 70.2461 258.754C70.8008 259.254 71.5 259.504 72.3438 259.504C73.6484 259.504 74.668 259.031 75.4023 258.086L77.0664 259.949C76.5586 260.668 75.8711 261.23 75.0039 261.637C74.1367 262.035 73.1758 262.234 72.1211 262.234ZM71.7344 251.828C71.0625 251.828 70.5156 252.055 70.0938 252.508C69.6797 252.961 69.4141 253.609 69.2969 254.453H74.0078V254.184C73.9922 253.434 73.7891 252.855 73.3984 252.449C73.0078 252.035 72.4531 251.828 71.7344 251.828ZM82.3867 249.32L82.4922 250.785C83.3984 249.652 84.6133 249.086 86.1367 249.086C87.4805 249.086 88.4805 249.48 89.1367 250.27C89.793 251.059 90.1289 252.238 90.1445 253.809V262H86.7578V253.891C86.7578 253.172 86.6016 252.652 86.2891 252.332C85.9766 252.004 85.457 251.84 84.7305 251.84C83.7773 251.84 83.0625 252.246 82.5859 253.059V262H79.1992V249.32H82.3867ZM92.2891 250.176L90.6953 249.25C91.3672 248.195 91.7148 247.105 91.7383 245.98V244H94.4336V245.816C94.4336 246.52 94.2383 247.281 93.8477 248.102C93.457 248.922 92.9375 249.613 92.2891 250.176ZM100.973 258.496C100.973 258.082 100.766 257.758 100.352 257.523C99.9453 257.281 99.2891 257.066 98.3828 256.879C95.3672 256.246 93.8594 254.965 93.8594 253.035C93.8594 251.91 94.3242 250.973 95.2539 250.223C96.1914 249.465 97.4141 249.086 98.9219 249.086C100.531 249.086 101.816 249.465 102.777 250.223C103.746 250.98 104.23 251.965 104.23 253.176H100.844C100.844 252.691 100.688 252.293 100.375 251.98C100.062 251.66 99.5742 251.5 98.9102 251.5C98.3398 251.5 97.8984 251.629 97.5859 251.887C97.2734 252.145 97.1172 252.473 97.1172 252.871C97.1172 253.246 97.293 253.551 97.6445 253.785C98.0039 254.012 98.6055 254.211 99.4492 254.383C100.293 254.547 101.004 254.734 101.582 254.945C103.371 255.602 104.266 256.738 104.266 258.355C104.266 259.512 103.77 260.449 102.777 261.168C101.785 261.879 100.504 262.234 98.9336 262.234C97.8711 262.234 96.9258 262.047 96.0977 261.672C95.2773 261.289 94.6328 260.77 94.1641 260.113C93.6953 259.449 93.4609 258.734 93.4609 257.969H96.6719C96.7031 258.57 96.9258 259.031 97.3398 259.352C97.7539 259.672 98.3086 259.832 99.0039 259.832C99.6523 259.832 100.141 259.711 100.469 259.469C100.805 259.219 100.973 258.895 100.973 258.496ZM126.051 256.316C125.918 258.152 125.238 259.598 124.012 260.652C122.793 261.707 121.184 262.234 119.184 262.234C116.996 262.234 115.273 261.5 114.016 260.031C112.766 258.555 112.141 256.531 112.141 253.961V252.918C112.141 251.277 112.43 249.832 113.008 248.582C113.586 247.332 114.41 246.375 115.48 245.711C116.559 245.039 117.809 244.703 119.23 244.703C121.199 244.703 122.785 245.23 123.988 246.285C125.191 247.34 125.887 248.82 126.074 250.727H122.559C122.473 249.625 122.164 248.828 121.633 248.336C121.109 247.836 120.309 247.586 119.23 247.586C118.059 247.586 117.18 248.008 116.594 248.852C116.016 249.688 115.719 250.988 115.703 252.754V254.043C115.703 255.887 115.98 257.234 116.535 258.086C117.098 258.938 117.98 259.363 119.184 259.363C120.27 259.363 121.078 259.117 121.609 258.625C122.148 258.125 122.457 257.355 122.535 256.316H126.051ZM131.711 262H128.312V244H131.711V262ZM133.984 255.543C133.984 254.285 134.227 253.164 134.711 252.18C135.195 251.195 135.891 250.434 136.797 249.895C137.711 249.355 138.77 249.086 139.973 249.086C141.684 249.086 143.078 249.609 144.156 250.656C145.242 251.703 145.848 253.125 145.973 254.922L145.996 255.789C145.996 257.734 145.453 259.297 144.367 260.477C143.281 261.648 141.824 262.234 139.996 262.234C138.168 262.234 136.707 261.648 135.613 260.477C134.527 259.305 133.984 257.711 133.984 255.695V255.543ZM137.371 255.789C137.371 256.992 137.598 257.914 138.051 258.555C138.504 259.188 139.152 259.504 139.996 259.504C140.816 259.504 141.457 259.191 141.918 258.566C142.379 257.934 142.609 256.926 142.609 255.543C142.609 254.363 142.379 253.449 141.918 252.801C141.457 252.152 140.809 251.828 139.973 251.828C139.145 251.828 138.504 252.152 138.051 252.801C137.598 253.441 137.371 254.438 137.371 255.789ZM152.137 246.203V249.32H154.305V251.805H152.137V258.133C152.137 258.602 152.227 258.938 152.406 259.141C152.586 259.344 152.93 259.445 153.438 259.445C153.812 259.445 154.145 259.418 154.434 259.363V261.93C153.77 262.133 153.086 262.234 152.383 262.234C150.008 262.234 148.797 261.035 148.75 258.637V251.805H146.898V249.32H148.75V246.203H152.137ZM159.496 250.703C160.395 249.625 161.523 249.086 162.883 249.086C165.633 249.086 167.027 250.684 167.066 253.879V262H163.68V253.973C163.68 253.246 163.523 252.711 163.211 252.367C162.898 252.016 162.379 251.84 161.652 251.84C160.66 251.84 159.941 252.223 159.496 252.988V262H156.109V244H159.496V250.703ZM173.195 262H169.797V249.32H173.195V262ZM169.598 246.039C169.598 245.531 169.766 245.113 170.102 244.785C170.445 244.457 170.91 244.293 171.496 244.293C172.074 244.293 172.535 244.457 172.879 244.785C173.223 245.113 173.395 245.531 173.395 246.039C173.395 246.555 173.219 246.977 172.867 247.305C172.523 247.633 172.066 247.797 171.496 247.797C170.926 247.797 170.465 247.633 170.113 247.305C169.77 246.977 169.598 246.555 169.598 246.039ZM179.113 249.32L179.219 250.785C180.125 249.652 181.34 249.086 182.863 249.086C184.207 249.086 185.207 249.48 185.863 250.27C186.52 251.059 186.855 252.238 186.871 253.809V262H183.484V253.891C183.484 253.172 183.328 252.652 183.016 252.332C182.703 252.004 182.184 251.84 181.457 251.84C180.504 251.84 179.789 252.246 179.312 253.059V262H175.926V249.32H179.113ZM188.957 255.566C188.957 253.621 189.418 252.055 190.34 250.867C191.27 249.68 192.52 249.086 194.09 249.086C195.48 249.086 196.562 249.562 197.336 250.516L197.477 249.32H200.547V261.578C200.547 262.688 200.293 263.652 199.785 264.473C199.285 265.293 198.578 265.918 197.664 266.348C196.75 266.777 195.68 266.992 194.453 266.992C193.523 266.992 192.617 266.805 191.734 266.43C190.852 266.062 190.184 265.586 189.73 265L191.23 262.938C192.074 263.883 193.098 264.355 194.301 264.355C195.199 264.355 195.898 264.113 196.398 263.629C196.898 263.152 197.148 262.473 197.148 261.59V260.91C196.367 261.793 195.34 262.234 194.066 262.234C192.543 262.234 191.309 261.641 190.363 260.453C189.426 259.258 188.957 257.676 188.957 255.707V255.566ZM192.344 255.812C192.344 256.961 192.574 257.863 193.035 258.52C193.496 259.168 194.129 259.492 194.934 259.492C195.965 259.492 196.703 259.105 197.148 258.332V253C196.695 252.227 195.965 251.84 194.957 251.84C194.145 251.84 193.504 252.172 193.035 252.836C192.574 253.5 192.344 254.492 192.344 255.812Z" fill="black"/>
</g>
<defs>
<clipPath id="clip0">
<rect width="375" height="812" fill="white"/>
</clipPath>
</defs>
</svg>
