<svg width="375" height="812" viewBox="0 0 375 812" fill="none" xmlns="http://www.w3.org/2000/svg">
<g clip-path="url(#clip0)">
<rect width="375" height="812" fill="white"/>
<rect x="-15.5" y="0.5" width="406" height="101" fill="white" stroke="black"/>
<rect x="10.5" y="10.5" width="49" height="49" fill="white" stroke="black"/>
<rect x="10.5" y="10.5" width="84" height="76" fill="white" stroke="black"/>
<rect x="313.5" y="10.5" width="49" height="49" fill="white" stroke="black"/>
<line x1="-19" y1="541.5" x2="395.005" y2="541.5" stroke="black"/>
<rect x="12.5" y="555.5" width="350" height="183" fill="white" stroke="black"/>
<rect x="26.5" y="652.5" width="69" height="69" fill="white" stroke="black"/>
<rect x="26.5" y="571.5" width="69" height="69" fill="white" stroke="black"/>
<line x1="130" y1="586.5" x2="309.003" y2="586.5" stroke="black"/>
<line x1="130" y1="623.5" x2="309.003" y2="623.5" stroke="black"/>
<line x1="130" y1="605.467" x2="309.003" y2="605.467" stroke="black"/>
<line x1="130" y1="686.5" x2="309.003" y2="686.5" stroke="black"/>
<line x1="130" y1="669.5" x2="309.003" y2="669.5" stroke="black"/>
<line x1="130" y1="702.5" x2="309.003" y2="702.5" stroke="black"/>
<rect x="288.5" y="760.5" width="74" height="25" fill="white" stroke="black"/>
<rect x="196.5" y="760.5" width="74" height="25" fill="white" stroke="black"/>
<path d="M12.5 760.5H86.5V785.5H12.5V760.5Z" fill="white" stroke="black"/>
<rect x="104.5" y="760.5" width="74" height="25" fill="white" stroke="black"/>
<rect x="17.5" y="115.5" width="341" height="40" fill="white" stroke="black"/>
<rect x="35.5" y="190.5" width="59" height="59" fill="white" stroke="black"/>
<rect x="74.5" y="478.5" width="31" height="31" fill="white" stroke="black"/>
<rect x="123.5" y="478.5" width="31" height="31" fill="white" stroke="black"/>
<rect x="172.5" y="478.5" width="31" height="31" fill="white" stroke="black"/>
<rect x="221.5" y="478.5" width="31" height="31" fill="white" stroke="black"/>
<rect x="270.5" y="478.5" width="31" height="31" fill="white" stroke="black"/>
<path d="M151.601 129.203L154.888 138.484L158.157 129.203H161.62V142H158.975V138.502L159.238 132.464L155.784 142H153.974L150.528 132.473L150.792 138.502V142H148.155V129.203H151.601ZM167.307 138.405L169.064 132.49H171.789L167.966 143.477L167.755 143.978C167.187 145.22 166.249 145.841 164.942 145.841C164.573 145.841 164.198 145.785 163.817 145.674V143.749L164.204 143.758C164.685 143.758 165.042 143.685 165.276 143.538C165.517 143.392 165.704 143.148 165.839 142.809L166.138 142.026L162.807 132.49H165.54L167.307 138.405ZM187.847 142H185.21L180.077 133.58V142H177.44V129.203H180.077L185.219 137.641V129.203H187.847V142ZM195.493 142C195.376 141.771 195.291 141.487 195.238 141.147C194.623 141.833 193.823 142.176 192.839 142.176C191.907 142.176 191.134 141.906 190.519 141.367C189.909 140.828 189.604 140.148 189.604 139.328C189.604 138.32 189.977 137.547 190.721 137.008C191.471 136.469 192.552 136.196 193.964 136.19H195.133V135.646C195.133 135.206 195.019 134.854 194.79 134.591C194.567 134.327 194.213 134.195 193.727 134.195C193.299 134.195 192.962 134.298 192.716 134.503C192.476 134.708 192.355 134.989 192.355 135.347H189.815C189.815 134.796 189.985 134.286 190.325 133.817C190.665 133.349 191.146 132.982 191.767 132.719C192.388 132.449 193.085 132.314 193.858 132.314C195.03 132.314 195.959 132.61 196.645 133.202C197.336 133.788 197.682 134.614 197.682 135.681V139.803C197.688 140.705 197.813 141.388 198.06 141.851V142H195.493ZM193.393 140.233C193.768 140.233 194.113 140.151 194.43 139.987C194.746 139.817 194.98 139.592 195.133 139.311V137.676H194.184C192.912 137.676 192.235 138.115 192.153 138.994L192.145 139.144C192.145 139.46 192.256 139.721 192.479 139.926C192.701 140.131 193.006 140.233 193.393 140.233ZM202.015 132.49L202.094 133.554C202.768 132.728 203.679 132.314 204.827 132.314C206.052 132.314 206.893 132.798 207.35 133.765C208.018 132.798 208.97 132.314 210.206 132.314C211.237 132.314 212.005 132.616 212.509 133.22C213.013 133.817 213.265 134.72 213.265 135.927V142H210.716V135.936C210.716 135.396 210.61 135.004 210.399 134.758C210.188 134.506 209.816 134.38 209.283 134.38C208.521 134.38 207.994 134.743 207.701 135.47L207.71 142H205.17V135.944C205.17 135.394 205.062 134.995 204.845 134.749C204.628 134.503 204.259 134.38 203.737 134.38C203.017 134.38 202.495 134.679 202.173 135.276V142H199.633V132.49H202.015ZM219.602 142.176C218.207 142.176 217.07 141.748 216.191 140.893C215.318 140.037 214.882 138.897 214.882 137.474V137.228C214.882 136.272 215.066 135.42 215.436 134.67C215.805 133.914 216.326 133.334 217 132.93C217.68 132.52 218.453 132.314 219.32 132.314C220.621 132.314 221.644 132.725 222.388 133.545C223.138 134.365 223.513 135.528 223.513 137.034V138.071H217.457C217.539 138.692 217.785 139.19 218.195 139.565C218.611 139.94 219.136 140.128 219.769 140.128C220.747 140.128 221.512 139.773 222.062 139.064L223.311 140.462C222.93 141.001 222.414 141.423 221.764 141.728C221.113 142.026 220.393 142.176 219.602 142.176ZM219.312 134.371C218.808 134.371 218.397 134.541 218.081 134.881C217.771 135.221 217.571 135.707 217.483 136.34H221.017V136.138C221.005 135.575 220.853 135.142 220.56 134.837C220.267 134.526 219.851 134.371 219.312 134.371Z" fill="black"/>
<path d="M43.4219 292.047V298.603C43.4219 299.692 43.0801 300.553 42.3965 301.187C41.7174 301.82 40.7878 302.137 39.6074 302.137C38.4453 302.137 37.5225 301.829 36.8389 301.214C36.1553 300.599 35.8066 299.753 35.793 298.678V292.047H37.8438V298.616C37.8438 299.268 37.9987 299.744 38.3086 300.045C38.623 300.341 39.056 300.489 39.6074 300.489C40.7604 300.489 41.346 299.883 41.3643 298.671V292.047H43.4219ZM48.9795 299.956C48.9795 299.715 48.8587 299.525 48.6172 299.389C48.3802 299.247 47.9974 299.122 47.4688 299.013C45.7096 298.644 44.8301 297.896 44.8301 296.771C44.8301 296.114 45.1012 295.567 45.6436 295.13C46.1904 294.688 46.9036 294.467 47.7832 294.467C48.722 294.467 49.4717 294.688 50.0322 295.13C50.5973 295.572 50.8799 296.146 50.8799 296.853H48.9043C48.9043 296.57 48.8132 296.338 48.6309 296.155C48.4486 295.968 48.1637 295.875 47.7764 295.875C47.4437 295.875 47.1862 295.95 47.0039 296.101C46.8216 296.251 46.7305 296.442 46.7305 296.675C46.7305 296.894 46.833 297.071 47.0381 297.208C47.2477 297.34 47.5986 297.456 48.0908 297.557C48.583 297.652 48.9977 297.762 49.335 297.885C50.3786 298.268 50.9004 298.931 50.9004 299.874C50.9004 300.549 50.611 301.095 50.0322 301.515C49.4535 301.929 48.7061 302.137 47.79 302.137C47.1702 302.137 46.6188 302.027 46.1357 301.809C45.6572 301.585 45.2812 301.282 45.0078 300.899C44.7344 300.512 44.5977 300.095 44.5977 299.648H46.4707C46.4889 299.999 46.6188 300.268 46.8604 300.455C47.1019 300.642 47.4255 300.735 47.8311 300.735C48.2093 300.735 48.4941 300.665 48.6855 300.523C48.8815 300.378 48.9795 300.188 48.9795 299.956ZM55.583 302.137C54.4984 302.137 53.6143 301.804 52.9307 301.139C52.2516 300.473 51.9121 299.587 51.9121 298.479V298.288C51.9121 297.545 52.0557 296.882 52.3428 296.299C52.6299 295.711 53.0355 295.26 53.5596 294.945C54.0882 294.626 54.6898 294.467 55.3643 294.467C56.376 294.467 57.1712 294.786 57.75 295.424C58.3333 296.062 58.625 296.966 58.625 298.138V298.944H53.915C53.9788 299.427 54.1702 299.815 54.4893 300.106C54.8128 300.398 55.2207 300.544 55.7129 300.544C56.474 300.544 57.0687 300.268 57.4971 299.717L58.4678 300.804C58.1715 301.223 57.7705 301.551 57.2646 301.788C56.7588 302.021 56.1982 302.137 55.583 302.137ZM55.3574 296.066C54.9655 296.066 54.6465 296.199 54.4004 296.463C54.1589 296.727 54.0039 297.105 53.9355 297.598H56.6836V297.44C56.6745 297.003 56.556 296.666 56.3281 296.429C56.1003 296.187 55.7767 296.066 55.3574 296.066ZM63.9092 296.456C63.6403 296.42 63.4033 296.401 63.1982 296.401C62.4508 296.401 61.9609 296.654 61.7285 297.16V302H59.7529V294.604H61.6191L61.6738 295.485C62.0703 294.806 62.6195 294.467 63.3213 294.467C63.54 294.467 63.7451 294.496 63.9365 294.556L63.9092 296.456ZM66.6846 294.604L66.7461 295.458C67.2747 294.797 67.9834 294.467 68.8721 294.467C69.6559 294.467 70.2393 294.697 70.6221 295.157C71.0049 295.618 71.2008 296.306 71.21 297.222V302H69.2344V297.27C69.2344 296.85 69.1432 296.547 68.9609 296.36C68.7786 296.169 68.4756 296.073 68.0518 296.073C67.4958 296.073 67.0788 296.31 66.8008 296.784V302H64.8252V294.604H66.6846ZM77 302C76.9089 301.822 76.8428 301.601 76.8018 301.337C76.3232 301.87 75.7012 302.137 74.9355 302.137C74.2109 302.137 73.6094 301.927 73.1309 301.508C72.6569 301.089 72.4199 300.56 72.4199 299.922C72.4199 299.138 72.7093 298.536 73.2881 298.117C73.8714 297.698 74.7122 297.486 75.8105 297.481H76.7197V297.058C76.7197 296.716 76.6309 296.442 76.4531 296.237C76.2799 296.032 76.0042 295.93 75.626 295.93C75.2933 295.93 75.0312 296.009 74.8398 296.169C74.653 296.328 74.5596 296.547 74.5596 296.825H72.584C72.584 296.397 72.7161 296 72.9805 295.636C73.2448 295.271 73.6185 294.986 74.1016 294.781C74.5846 294.572 75.127 294.467 75.7285 294.467C76.64 294.467 77.3623 294.697 77.8955 295.157C78.4333 295.613 78.7021 296.256 78.7021 297.085V300.291C78.7067 300.993 78.8047 301.524 78.9961 301.884V302H77ZM75.3662 300.626C75.6579 300.626 75.9268 300.562 76.1729 300.435C76.4189 300.302 76.6012 300.127 76.7197 299.908V298.637H75.9814C74.9925 298.637 74.4661 298.979 74.4023 299.662L74.3955 299.778C74.3955 300.024 74.4821 300.227 74.6553 300.387C74.8285 300.546 75.0654 300.626 75.3662 300.626ZM82.0723 294.604L82.1338 295.431C82.6579 294.788 83.3665 294.467 84.2598 294.467C85.2122 294.467 85.8662 294.843 86.2217 295.595C86.7412 294.843 87.4818 294.467 88.4434 294.467C89.2454 294.467 89.8424 294.701 90.2344 295.171C90.6263 295.636 90.8223 296.338 90.8223 297.276V302H88.8398V297.283C88.8398 296.864 88.7578 296.559 88.5938 296.367C88.4297 296.171 88.1403 296.073 87.7256 296.073C87.1331 296.073 86.723 296.356 86.4951 296.921L86.502 302H84.5264V297.29C84.5264 296.862 84.4421 296.552 84.2734 296.36C84.1048 296.169 83.8177 296.073 83.4121 296.073C82.8516 296.073 82.446 296.306 82.1953 296.771V302H80.2197V294.604H82.0723ZM95.751 302.137C94.6663 302.137 93.7822 301.804 93.0986 301.139C92.4196 300.473 92.0801 299.587 92.0801 298.479V298.288C92.0801 297.545 92.2236 296.882 92.5107 296.299C92.7979 295.711 93.2035 295.26 93.7275 294.945C94.2562 294.626 94.8577 294.467 95.5322 294.467C96.5439 294.467 97.3392 294.786 97.918 295.424C98.5013 296.062 98.793 296.966 98.793 298.138V298.944H94.083C94.1468 299.427 94.3382 299.815 94.6572 300.106C94.9808 300.398 95.3887 300.544 95.8809 300.544C96.6419 300.544 97.2367 300.268 97.665 299.717L98.6357 300.804C98.3395 301.223 97.9385 301.551 97.4326 301.788C96.9268 302.021 96.3662 302.137 95.751 302.137ZM95.5254 296.066C95.1335 296.066 94.8145 296.199 94.5684 296.463C94.3268 296.727 94.1719 297.105 94.1035 297.598H96.8516V297.44C96.8424 297.003 96.724 296.666 96.4961 296.429C96.2682 296.187 95.9447 296.066 95.5254 296.066ZM100.017 301.029C100.017 300.715 100.121 300.46 100.331 300.264C100.545 300.068 100.812 299.97 101.131 299.97C101.454 299.97 101.721 300.068 101.931 300.264C102.145 300.46 102.252 300.715 102.252 301.029C102.252 301.339 102.147 301.592 101.938 301.788C101.728 301.979 101.459 302.075 101.131 302.075C100.807 302.075 100.541 301.979 100.331 301.788C100.121 301.592 100.017 301.339 100.017 301.029ZM100.017 295.431C100.017 295.116 100.121 294.861 100.331 294.665C100.545 294.469 100.812 294.371 101.131 294.371C101.454 294.371 101.721 294.469 101.931 294.665C102.145 294.861 102.252 295.116 102.252 295.431C102.252 295.741 102.147 295.993 101.938 296.189C101.728 296.381 101.459 296.477 101.131 296.477C100.807 296.477 100.541 296.381 100.331 296.189C100.121 295.993 100.017 295.741 100.017 295.431Z" fill="black"/>
<path d="M41.5078 352.949H37.9121L37.2285 355H35.0479L38.7529 345.047H40.6533L44.3789 355H42.1982L41.5078 352.949ZM38.4658 351.288H40.9541L39.7031 347.562L38.4658 351.288ZM48.2549 353.544C48.6195 353.544 48.9157 353.444 49.1436 353.243C49.3714 353.043 49.4899 352.776 49.499 352.443H51.3516C51.347 352.945 51.2103 353.405 50.9414 353.824C50.6725 354.239 50.3034 354.562 49.834 354.795C49.3691 355.023 48.8542 355.137 48.2891 355.137C47.2318 355.137 46.3978 354.802 45.7871 354.132C45.1764 353.457 44.8711 352.528 44.8711 351.343V351.213C44.8711 350.074 45.1742 349.164 45.7803 348.485C46.3864 347.806 47.2181 347.467 48.2754 347.467C49.2005 347.467 49.9411 347.731 50.4971 348.26C51.0576 348.784 51.3424 349.483 51.3516 350.358H49.499C49.4899 349.976 49.3714 349.666 49.1436 349.429C48.9157 349.187 48.6149 349.066 48.2412 349.066C47.7809 349.066 47.4323 349.235 47.1953 349.572C46.9629 349.905 46.8467 350.447 46.8467 351.199V351.404C46.8467 352.165 46.9629 352.712 47.1953 353.045C47.4277 353.378 47.7809 353.544 48.2549 353.544ZM55.5557 353.544C55.9202 353.544 56.2165 353.444 56.4443 353.243C56.6722 353.043 56.7907 352.776 56.7998 352.443H58.6523C58.6478 352.945 58.5111 353.405 58.2422 353.824C57.9733 354.239 57.6042 354.562 57.1348 354.795C56.6699 355.023 56.1549 355.137 55.5898 355.137C54.5326 355.137 53.6986 354.802 53.0879 354.132C52.4772 353.457 52.1719 352.528 52.1719 351.343V351.213C52.1719 350.074 52.4749 349.164 53.0811 348.485C53.6872 347.806 54.5189 347.467 55.5762 347.467C56.5013 347.467 57.2419 347.731 57.7979 348.26C58.3584 348.784 58.6432 349.483 58.6523 350.358H56.7998C56.7907 349.976 56.6722 349.666 56.4443 349.429C56.2165 349.187 55.9157 349.066 55.542 349.066C55.0817 349.066 54.7331 349.235 54.4961 349.572C54.2637 349.905 54.1475 350.447 54.1475 351.199V351.404C54.1475 352.165 54.2637 352.712 54.4961 353.045C54.7285 353.378 55.0817 353.544 55.5557 353.544ZM59.4727 351.233C59.4727 350.5 59.6139 349.846 59.8965 349.271C60.179 348.697 60.5846 348.253 61.1133 347.938C61.6465 347.624 62.264 347.467 62.9658 347.467C63.9639 347.467 64.7773 347.772 65.4062 348.383C66.0397 348.993 66.3929 349.823 66.4658 350.871L66.4795 351.377C66.4795 352.512 66.1628 353.423 65.5293 354.111C64.8958 354.795 64.0459 355.137 62.9795 355.137C61.9131 355.137 61.0609 354.795 60.4229 354.111C59.7894 353.428 59.4727 352.498 59.4727 351.322V351.233ZM61.4482 351.377C61.4482 352.079 61.5804 352.617 61.8447 352.99C62.109 353.359 62.4873 353.544 62.9795 353.544C63.458 353.544 63.8317 353.362 64.1006 352.997C64.3695 352.628 64.5039 352.04 64.5039 351.233C64.5039 350.545 64.3695 350.012 64.1006 349.634C63.8317 349.256 63.4535 349.066 62.9658 349.066C62.4827 349.066 62.109 349.256 61.8447 349.634C61.5804 350.007 61.4482 350.589 61.4482 351.377ZM72.126 354.248C71.6383 354.84 70.9639 355.137 70.1025 355.137C69.3096 355.137 68.7035 354.909 68.2842 354.453C67.8695 353.997 67.6576 353.33 67.6484 352.45V347.604H69.624V352.382C69.624 353.152 69.9749 353.537 70.6768 353.537C71.3467 353.537 71.807 353.305 72.0576 352.84V347.604H74.04V355H72.1807L72.126 354.248ZM77.3486 347.604L77.4102 348.458C77.9388 347.797 78.6475 347.467 79.5361 347.467C80.32 347.467 80.9033 347.697 81.2861 348.157C81.6689 348.618 81.8649 349.306 81.874 350.222V355H79.8984V350.27C79.8984 349.85 79.8073 349.547 79.625 349.36C79.4427 349.169 79.1396 349.073 78.7158 349.073C78.1598 349.073 77.7428 349.31 77.4648 349.784V355H75.4893V347.604H77.3486ZM85.7432 345.785V347.604H87.0078V349.053H85.7432V352.744C85.7432 353.018 85.7956 353.214 85.9004 353.332C86.0052 353.451 86.2057 353.51 86.502 353.51C86.7207 353.51 86.9144 353.494 87.083 353.462V354.959C86.6956 355.077 86.2969 355.137 85.8867 355.137C84.5013 355.137 83.7949 354.437 83.7676 353.038V349.053H82.6875V347.604H83.7676V345.785H85.7432ZM97.7129 350.687H93.7754V353.353H98.3965V355H91.7246V345.047H98.3828V346.708H93.7754V349.08H97.7129V350.687ZM101.322 347.604L101.384 348.431C101.908 347.788 102.617 347.467 103.51 347.467C104.462 347.467 105.116 347.843 105.472 348.595C105.991 347.843 106.732 347.467 107.693 347.467C108.495 347.467 109.092 347.701 109.484 348.171C109.876 348.636 110.072 349.338 110.072 350.276V355H108.09V350.283C108.09 349.864 108.008 349.559 107.844 349.367C107.68 349.171 107.39 349.073 106.976 349.073C106.383 349.073 105.973 349.356 105.745 349.921L105.752 355H103.776V350.29C103.776 349.862 103.692 349.552 103.523 349.36C103.355 349.169 103.068 349.073 102.662 349.073C102.102 349.073 101.696 349.306 101.445 349.771V355H99.4697V347.604H101.322ZM115.883 355C115.792 354.822 115.726 354.601 115.685 354.337C115.206 354.87 114.584 355.137 113.818 355.137C113.094 355.137 112.492 354.927 112.014 354.508C111.54 354.089 111.303 353.56 111.303 352.922C111.303 352.138 111.592 351.536 112.171 351.117C112.754 350.698 113.595 350.486 114.693 350.481H115.603V350.058C115.603 349.716 115.514 349.442 115.336 349.237C115.163 349.032 114.887 348.93 114.509 348.93C114.176 348.93 113.914 349.009 113.723 349.169C113.536 349.328 113.442 349.547 113.442 349.825H111.467C111.467 349.397 111.599 349 111.863 348.636C112.128 348.271 112.501 347.986 112.984 347.781C113.467 347.572 114.01 347.467 114.611 347.467C115.523 347.467 116.245 347.697 116.778 348.157C117.316 348.613 117.585 349.256 117.585 350.085V353.291C117.59 353.993 117.688 354.524 117.879 354.884V355H115.883ZM114.249 353.626C114.541 353.626 114.81 353.562 115.056 353.435C115.302 353.302 115.484 353.127 115.603 352.908V351.637H114.864C113.875 351.637 113.349 351.979 113.285 352.662L113.278 352.778C113.278 353.024 113.365 353.227 113.538 353.387C113.711 353.546 113.948 353.626 114.249 353.626ZM121.188 355H119.205V347.604H121.188V355ZM119.089 345.689C119.089 345.393 119.187 345.149 119.383 344.958C119.583 344.767 119.854 344.671 120.196 344.671C120.534 344.671 120.802 344.767 121.003 344.958C121.203 345.149 121.304 345.393 121.304 345.689C121.304 345.99 121.201 346.236 120.996 346.428C120.796 346.619 120.529 346.715 120.196 346.715C119.864 346.715 119.595 346.619 119.39 346.428C119.189 346.236 119.089 345.99 119.089 345.689ZM124.906 355H122.924V344.5H124.906V355ZM126.636 354.029C126.636 353.715 126.741 353.46 126.95 353.264C127.164 353.068 127.431 352.97 127.75 352.97C128.074 352.97 128.34 353.068 128.55 353.264C128.764 353.46 128.871 353.715 128.871 354.029C128.871 354.339 128.766 354.592 128.557 354.788C128.347 354.979 128.078 355.075 127.75 355.075C127.426 355.075 127.16 354.979 126.95 354.788C126.741 354.592 126.636 354.339 126.636 354.029ZM126.636 348.431C126.636 348.116 126.741 347.861 126.95 347.665C127.164 347.469 127.431 347.371 127.75 347.371C128.074 347.371 128.34 347.469 128.55 347.665C128.764 347.861 128.871 348.116 128.871 348.431C128.871 348.741 128.766 348.993 128.557 349.189C128.347 349.381 128.078 349.477 127.75 349.477C127.426 349.477 127.16 349.381 126.95 349.189C126.741 348.993 126.636 348.741 126.636 348.431Z" fill="black"/>
<path d="M43.9893 406H41.9385V401.734H37.9395V406H35.8887V396.047H37.9395V400.08H41.9385V396.047H43.9893V406ZM45.7871 406V396.047H48.8496C49.7246 396.047 50.5062 396.245 51.1943 396.642C51.887 397.034 52.4271 397.594 52.8145 398.323C53.2018 399.048 53.3955 399.873 53.3955 400.798V401.256C53.3955 402.181 53.2041 403.004 52.8213 403.724C52.443 404.444 51.9076 405.002 51.2148 405.398C50.5221 405.795 49.7406 405.995 48.8701 406H45.7871ZM47.8379 397.708V404.353H48.8291C49.6312 404.353 50.2441 404.09 50.668 403.566C51.0918 403.042 51.3083 402.293 51.3174 401.317V400.791C51.3174 399.779 51.1077 399.014 50.6885 398.494C50.2692 397.97 49.6562 397.708 48.8496 397.708H47.8379ZM62.7061 402.685C62.6286 403.756 62.2321 404.599 61.5166 405.214C60.8057 405.829 59.8669 406.137 58.7002 406.137C57.4242 406.137 56.4193 405.708 55.6855 404.852C54.9564 403.99 54.5918 402.81 54.5918 401.311V400.702C54.5918 399.745 54.7604 398.902 55.0977 398.173C55.4349 397.444 55.9157 396.885 56.54 396.498C57.1689 396.106 57.8981 395.91 58.7275 395.91C59.876 395.91 60.8011 396.218 61.5029 396.833C62.2048 397.448 62.6104 398.312 62.7197 399.424H60.6689C60.6188 398.781 60.4388 398.316 60.1289 398.029C59.8236 397.738 59.3564 397.592 58.7275 397.592C58.0439 397.592 57.5312 397.838 57.1895 398.33C56.8522 398.818 56.679 399.576 56.6699 400.606V401.358C56.6699 402.434 56.8317 403.22 57.1553 403.717C57.4834 404.214 57.9984 404.462 58.7002 404.462C59.3337 404.462 59.8053 404.318 60.1152 404.031C60.4297 403.74 60.6097 403.291 60.6553 402.685H62.7061ZM70.2188 396.047L72.7754 403.266L75.3184 396.047H78.0117V406H75.9541V403.279L76.1592 398.583L73.4727 406H72.0645L69.3848 398.59L69.5898 403.279V406H67.5391V396.047H70.2188ZM83.0771 406.137C81.9925 406.137 81.1084 405.804 80.4248 405.139C79.7458 404.473 79.4062 403.587 79.4062 402.479V402.288C79.4062 401.545 79.5498 400.882 79.8369 400.299C80.124 399.711 80.5296 399.26 81.0537 398.945C81.5824 398.626 82.1839 398.467 82.8584 398.467C83.8701 398.467 84.6654 398.786 85.2441 399.424C85.8275 400.062 86.1191 400.966 86.1191 402.138V402.944H81.4092C81.473 403.427 81.6644 403.815 81.9834 404.106C82.307 404.398 82.7148 404.544 83.207 404.544C83.9681 404.544 84.5628 404.268 84.9912 403.717L85.9619 404.804C85.6657 405.223 85.2646 405.551 84.7588 405.788C84.2529 406.021 83.6924 406.137 83.0771 406.137ZM82.8516 400.066C82.4596 400.066 82.1406 400.199 81.8945 400.463C81.653 400.727 81.498 401.105 81.4297 401.598H84.1777V401.44C84.1686 401.003 84.0501 400.666 83.8223 400.429C83.5944 400.187 83.2708 400.066 82.8516 400.066ZM89.0996 398.604L89.1611 399.431C89.6852 398.788 90.3939 398.467 91.2871 398.467C92.2396 398.467 92.8936 398.843 93.249 399.595C93.7686 398.843 94.5091 398.467 95.4707 398.467C96.2728 398.467 96.8698 398.701 97.2617 399.171C97.6536 399.636 97.8496 400.338 97.8496 401.276V406H95.8672V401.283C95.8672 400.864 95.7852 400.559 95.6211 400.367C95.457 400.171 95.1676 400.073 94.7529 400.073C94.1605 400.073 93.7503 400.356 93.5225 400.921L93.5293 406H91.5537V401.29C91.5537 400.862 91.4694 400.552 91.3008 400.36C91.1322 400.169 90.8451 400.073 90.4395 400.073C89.8789 400.073 89.4733 400.306 89.2227 400.771V406H87.2471V398.604H89.0996ZM106.039 402.37C106.039 403.555 105.786 404.48 105.28 405.146C104.774 405.806 104.068 406.137 103.161 406.137C102.359 406.137 101.719 405.829 101.24 405.214L101.151 406H99.374V395.5H101.35V399.267C101.805 398.733 102.405 398.467 103.147 398.467C104.05 398.467 104.756 398.799 105.267 399.465C105.782 400.126 106.039 401.058 106.039 402.261V402.37ZM104.063 402.227C104.063 401.479 103.945 400.935 103.708 400.593C103.471 400.246 103.118 400.073 102.648 400.073C102.02 400.073 101.587 400.331 101.35 400.846V403.765C101.591 404.284 102.029 404.544 102.662 404.544C103.3 404.544 103.719 404.229 103.92 403.601C104.016 403.3 104.063 402.842 104.063 402.227ZM110.667 406.137C109.582 406.137 108.698 405.804 108.015 405.139C107.336 404.473 106.996 403.587 106.996 402.479V402.288C106.996 401.545 107.14 400.882 107.427 400.299C107.714 399.711 108.119 399.26 108.644 398.945C109.172 398.626 109.774 398.467 110.448 398.467C111.46 398.467 112.255 398.786 112.834 399.424C113.417 400.062 113.709 400.966 113.709 402.138V402.944H108.999C109.063 403.427 109.254 403.815 109.573 404.106C109.897 404.398 110.305 404.544 110.797 404.544C111.558 404.544 112.153 404.268 112.581 403.717L113.552 404.804C113.256 405.223 112.854 405.551 112.349 405.788C111.843 406.021 111.282 406.137 110.667 406.137ZM110.441 400.066C110.049 400.066 109.73 400.199 109.484 400.463C109.243 400.727 109.088 401.105 109.02 401.598H111.768V401.44C111.758 401.003 111.64 400.666 111.412 400.429C111.184 400.187 110.861 400.066 110.441 400.066ZM118.993 400.456C118.724 400.42 118.487 400.401 118.282 400.401C117.535 400.401 117.045 400.654 116.812 401.16V406H114.837V398.604H116.703L116.758 399.485C117.154 398.806 117.703 398.467 118.405 398.467C118.624 398.467 118.829 398.496 119.021 398.556L118.993 400.456ZM128.728 403.389C128.728 403.001 128.591 402.705 128.317 402.5C128.044 402.29 127.552 402.072 126.841 401.844C126.13 401.611 125.567 401.383 125.152 401.16C124.022 400.549 123.457 399.727 123.457 398.692C123.457 398.155 123.607 397.676 123.908 397.257C124.214 396.833 124.649 396.503 125.214 396.266C125.784 396.029 126.422 395.91 127.128 395.91C127.839 395.91 128.472 396.04 129.028 396.3C129.584 396.555 130.015 396.917 130.32 397.387C130.63 397.856 130.785 398.389 130.785 398.986H128.734C128.734 398.531 128.591 398.177 128.304 397.927C128.017 397.672 127.613 397.544 127.094 397.544C126.592 397.544 126.203 397.651 125.925 397.865C125.647 398.075 125.508 398.353 125.508 398.699C125.508 399.023 125.67 399.294 125.993 399.513C126.321 399.731 126.802 399.937 127.436 400.128C128.602 400.479 129.452 400.914 129.985 401.434C130.519 401.953 130.785 402.6 130.785 403.375C130.785 404.236 130.459 404.913 129.808 405.405C129.156 405.893 128.279 406.137 127.176 406.137C126.41 406.137 125.713 405.998 125.084 405.72C124.455 405.437 123.974 405.052 123.642 404.564C123.313 404.077 123.149 403.512 123.149 402.869H125.207C125.207 403.967 125.863 404.517 127.176 404.517C127.663 404.517 128.044 404.419 128.317 404.223C128.591 404.022 128.728 403.744 128.728 403.389ZM134.135 406H132.152V398.604H134.135V406ZM132.036 396.689C132.036 396.393 132.134 396.149 132.33 395.958C132.531 395.767 132.802 395.671 133.144 395.671C133.481 395.671 133.75 395.767 133.95 395.958C134.151 396.149 134.251 396.393 134.251 396.689C134.251 396.99 134.148 397.236 133.943 397.428C133.743 397.619 133.476 397.715 133.144 397.715C132.811 397.715 132.542 397.619 132.337 397.428C132.136 397.236 132.036 396.99 132.036 396.689ZM137.587 398.604L137.648 399.458C138.177 398.797 138.886 398.467 139.774 398.467C140.558 398.467 141.142 398.697 141.524 399.157C141.907 399.618 142.103 400.306 142.112 401.222V406H140.137V401.27C140.137 400.85 140.046 400.547 139.863 400.36C139.681 400.169 139.378 400.073 138.954 400.073C138.398 400.073 137.981 400.31 137.703 400.784V406H135.728V398.604H137.587ZM146.692 404.544C147.057 404.544 147.353 404.444 147.581 404.243C147.809 404.043 147.927 403.776 147.937 403.443H149.789C149.785 403.945 149.648 404.405 149.379 404.824C149.11 405.239 148.741 405.562 148.271 405.795C147.807 406.023 147.292 406.137 146.727 406.137C145.669 406.137 144.835 405.802 144.225 405.132C143.614 404.457 143.309 403.528 143.309 402.343V402.213C143.309 401.074 143.612 400.164 144.218 399.485C144.824 398.806 145.656 398.467 146.713 398.467C147.638 398.467 148.379 398.731 148.935 399.26C149.495 399.784 149.78 400.483 149.789 401.358H147.937C147.927 400.976 147.809 400.666 147.581 400.429C147.353 400.187 147.052 400.066 146.679 400.066C146.218 400.066 145.87 400.235 145.633 400.572C145.4 400.905 145.284 401.447 145.284 402.199V402.404C145.284 403.165 145.4 403.712 145.633 404.045C145.865 404.378 146.218 404.544 146.692 404.544ZM154.321 406.137C153.237 406.137 152.353 405.804 151.669 405.139C150.99 404.473 150.65 403.587 150.65 402.479V402.288C150.65 401.545 150.794 400.882 151.081 400.299C151.368 399.711 151.774 399.26 152.298 398.945C152.826 398.626 153.428 398.467 154.103 398.467C155.114 398.467 155.91 398.786 156.488 399.424C157.072 400.062 157.363 400.966 157.363 402.138V402.944H152.653C152.717 403.427 152.909 403.815 153.228 404.106C153.551 404.398 153.959 404.544 154.451 404.544C155.212 404.544 155.807 404.268 156.235 403.717L157.206 404.804C156.91 405.223 156.509 405.551 156.003 405.788C155.497 406.021 154.937 406.137 154.321 406.137ZM154.096 400.066C153.704 400.066 153.385 400.199 153.139 400.463C152.897 400.727 152.742 401.105 152.674 401.598H155.422V401.44C155.413 401.003 155.294 400.666 155.066 400.429C154.839 400.187 154.515 400.066 154.096 400.066ZM158.587 405.029C158.587 404.715 158.692 404.46 158.901 404.264C159.116 404.068 159.382 403.97 159.701 403.97C160.025 403.97 160.291 404.068 160.501 404.264C160.715 404.46 160.822 404.715 160.822 405.029C160.822 405.339 160.717 405.592 160.508 405.788C160.298 405.979 160.029 406.075 159.701 406.075C159.378 406.075 159.111 405.979 158.901 405.788C158.692 405.592 158.587 405.339 158.587 405.029ZM158.587 399.431C158.587 399.116 158.692 398.861 158.901 398.665C159.116 398.469 159.382 398.371 159.701 398.371C160.025 398.371 160.291 398.469 160.501 398.665C160.715 398.861 160.822 399.116 160.822 399.431C160.822 399.741 160.717 399.993 160.508 400.189C160.298 400.381 160.029 400.477 159.701 400.477C159.378 400.477 159.111 400.381 158.901 400.189C158.692 399.993 158.587 399.741 158.587 399.431Z" fill="black"/>
<path d="M39.9395 454.353H44.2939V456H37.8887V446.047H39.9395V454.353ZM47.4316 456H45.4492V448.604H47.4316V456ZM45.333 446.689C45.333 446.393 45.431 446.149 45.627 445.958C45.8275 445.767 46.0986 445.671 46.4404 445.671C46.7777 445.671 47.0465 445.767 47.2471 445.958C47.4476 446.149 47.5479 446.393 47.5479 446.689C47.5479 446.99 47.4453 447.236 47.2402 447.428C47.0397 447.619 46.7731 447.715 46.4404 447.715C46.1077 447.715 45.8389 447.619 45.6338 447.428C45.4333 447.236 45.333 446.99 45.333 446.689ZM50.8838 448.604L50.9453 449.458C51.474 448.797 52.1826 448.467 53.0713 448.467C53.8551 448.467 54.4385 448.697 54.8213 449.157C55.2041 449.618 55.4001 450.306 55.4092 451.222V456H53.4336V451.27C53.4336 450.85 53.3424 450.547 53.1602 450.36C52.9779 450.169 52.6748 450.073 52.251 450.073C51.695 450.073 51.278 450.31 51 450.784V456H49.0244V448.604H50.8838ZM59.5996 453.033L58.8887 453.744V456H56.9131V445.5H58.8887V451.317L59.2715 450.825L61.165 448.604H63.5371L60.8643 451.687L63.7695 456H61.5L59.5996 453.033ZM67.6592 456.137C66.5745 456.137 65.6904 455.804 65.0068 455.139C64.3278 454.473 63.9883 453.587 63.9883 452.479V452.288C63.9883 451.545 64.1318 450.882 64.4189 450.299C64.7061 449.711 65.1117 449.26 65.6357 448.945C66.1644 448.626 66.766 448.467 67.4404 448.467C68.4521 448.467 69.2474 448.786 69.8262 449.424C70.4095 450.062 70.7012 450.966 70.7012 452.138V452.944H65.9912C66.055 453.427 66.2464 453.815 66.5654 454.106C66.889 454.398 67.2969 454.544 67.7891 454.544C68.5501 454.544 69.1449 454.268 69.5732 453.717L70.5439 454.804C70.2477 455.223 69.8467 455.551 69.3408 455.788C68.835 456.021 68.2744 456.137 67.6592 456.137ZM67.4336 450.066C67.0417 450.066 66.7227 450.199 66.4766 450.463C66.235 450.727 66.0801 451.105 66.0117 451.598H68.7598V451.44C68.7507 451.003 68.6322 450.666 68.4043 450.429C68.1764 450.187 67.8529 450.066 67.4336 450.066ZM71.5215 452.247C71.5215 451.094 71.779 450.176 72.2939 449.492C72.8135 448.809 73.5221 448.467 74.4199 448.467C75.14 448.467 75.7347 448.736 76.2041 449.273V445.5H78.1865V456H76.4023L76.3066 455.214C75.8145 455.829 75.181 456.137 74.4062 456.137C73.5358 456.137 72.8363 455.795 72.3076 455.111C71.7835 454.423 71.5215 453.468 71.5215 452.247ZM73.4971 452.391C73.4971 453.083 73.6178 453.614 73.8594 453.983C74.1009 454.353 74.4518 454.537 74.9121 454.537C75.5228 454.537 75.9535 454.28 76.2041 453.765V450.846C75.958 450.331 75.5319 450.073 74.9258 450.073C73.9733 450.073 73.4971 450.846 73.4971 452.391ZM88.4951 453.389C88.4951 453.001 88.3584 452.705 88.085 452.5C87.8115 452.29 87.3193 452.072 86.6084 451.844C85.8975 451.611 85.3346 451.383 84.9199 451.16C83.7897 450.549 83.2246 449.727 83.2246 448.692C83.2246 448.155 83.375 447.676 83.6758 447.257C83.9811 446.833 84.4163 446.503 84.9814 446.266C85.5511 446.029 86.1891 445.91 86.8955 445.91C87.6064 445.91 88.2399 446.04 88.7959 446.3C89.3519 446.555 89.7826 446.917 90.0879 447.387C90.3978 447.856 90.5527 448.389 90.5527 448.986H88.502C88.502 448.531 88.3584 448.177 88.0713 447.927C87.7842 447.672 87.3809 447.544 86.8613 447.544C86.36 447.544 85.9704 447.651 85.6924 447.865C85.4144 448.075 85.2754 448.353 85.2754 448.699C85.2754 449.023 85.4372 449.294 85.7607 449.513C86.0889 449.731 86.5697 449.937 87.2031 450.128C88.3698 450.479 89.2197 450.914 89.7529 451.434C90.2861 451.953 90.5527 452.6 90.5527 453.375C90.5527 454.236 90.2269 454.913 89.5752 455.405C88.9235 455.893 88.0462 456.137 86.9434 456.137C86.1777 456.137 85.4805 455.998 84.8516 455.72C84.2227 455.437 83.7419 455.052 83.4092 454.564C83.0811 454.077 82.917 453.512 82.917 452.869H84.9746C84.9746 453.967 85.6309 454.517 86.9434 454.517C87.431 454.517 87.8115 454.419 88.085 454.223C88.3584 454.022 88.4951 453.744 88.4951 453.389ZM91.5098 452.233C91.5098 451.5 91.651 450.846 91.9336 450.271C92.2161 449.697 92.6217 449.253 93.1504 448.938C93.6836 448.624 94.3011 448.467 95.0029 448.467C96.001 448.467 96.8145 448.772 97.4434 449.383C98.0768 449.993 98.43 450.823 98.5029 451.871L98.5166 452.377C98.5166 453.512 98.1999 454.423 97.5664 455.111C96.9329 455.795 96.083 456.137 95.0166 456.137C93.9502 456.137 93.098 455.795 92.46 455.111C91.8265 454.428 91.5098 453.498 91.5098 452.322V452.233ZM93.4854 452.377C93.4854 453.079 93.6175 453.617 93.8818 453.99C94.1462 454.359 94.5244 454.544 95.0166 454.544C95.4951 454.544 95.8688 454.362 96.1377 453.997C96.4066 453.628 96.541 453.04 96.541 452.233C96.541 451.545 96.4066 451.012 96.1377 450.634C95.8688 450.256 95.4906 450.066 95.0029 450.066C94.5199 450.066 94.1462 450.256 93.8818 450.634C93.6175 451.007 93.4854 451.589 93.4854 452.377ZM102.81 454.544C103.174 454.544 103.47 454.444 103.698 454.243C103.926 454.043 104.045 453.776 104.054 453.443H105.906C105.902 453.945 105.765 454.405 105.496 454.824C105.227 455.239 104.858 455.562 104.389 455.795C103.924 456.023 103.409 456.137 102.844 456.137C101.786 456.137 100.952 455.802 100.342 455.132C99.7311 454.457 99.4258 453.528 99.4258 452.343V452.213C99.4258 451.074 99.7288 450.164 100.335 449.485C100.941 448.806 101.773 448.467 102.83 448.467C103.755 448.467 104.496 448.731 105.052 449.26C105.612 449.784 105.897 450.483 105.906 451.358H104.054C104.045 450.976 103.926 450.666 103.698 450.429C103.47 450.187 103.17 450.066 102.796 450.066C102.336 450.066 101.987 450.235 101.75 450.572C101.518 450.905 101.401 451.447 101.401 452.199V452.404C101.401 453.165 101.518 453.712 101.75 454.045C101.982 454.378 102.336 454.544 102.81 454.544ZM109.119 456H107.137V448.604H109.119V456ZM107.021 446.689C107.021 446.393 107.118 446.149 107.314 445.958C107.515 445.767 107.786 445.671 108.128 445.671C108.465 445.671 108.734 445.767 108.935 445.958C109.135 446.149 109.235 446.393 109.235 446.689C109.235 446.99 109.133 447.236 108.928 447.428C108.727 447.619 108.461 447.715 108.128 447.715C107.795 447.715 107.526 447.619 107.321 447.428C107.121 447.236 107.021 446.99 107.021 446.689ZM115.039 456C114.948 455.822 114.882 455.601 114.841 455.337C114.362 455.87 113.74 456.137 112.975 456.137C112.25 456.137 111.648 455.927 111.17 455.508C110.696 455.089 110.459 454.56 110.459 453.922C110.459 453.138 110.748 452.536 111.327 452.117C111.91 451.698 112.751 451.486 113.85 451.481H114.759V451.058C114.759 450.716 114.67 450.442 114.492 450.237C114.319 450.032 114.043 449.93 113.665 449.93C113.332 449.93 113.07 450.009 112.879 450.169C112.692 450.328 112.599 450.547 112.599 450.825H110.623C110.623 450.397 110.755 450 111.02 449.636C111.284 449.271 111.658 448.986 112.141 448.781C112.624 448.572 113.166 448.467 113.768 448.467C114.679 448.467 115.401 448.697 115.935 449.157C116.472 449.613 116.741 450.256 116.741 451.085V454.291C116.746 454.993 116.844 455.524 117.035 455.884V456H115.039ZM113.405 454.626C113.697 454.626 113.966 454.562 114.212 454.435C114.458 454.302 114.64 454.127 114.759 453.908V452.637H114.021C113.032 452.637 112.505 452.979 112.441 453.662L112.435 453.778C112.435 454.024 112.521 454.227 112.694 454.387C112.868 454.546 113.104 454.626 113.405 454.626ZM120.344 456H118.361V445.5H120.344V456ZM128.273 446.047L130.83 453.266L133.373 446.047H136.066V456H134.009V453.279L134.214 448.583L131.527 456H130.119L127.439 448.59L127.645 453.279V456H125.594V446.047H128.273ZM141.132 456.137C140.047 456.137 139.163 455.804 138.479 455.139C137.8 454.473 137.461 453.587 137.461 452.479V452.288C137.461 451.545 137.604 450.882 137.892 450.299C138.179 449.711 138.584 449.26 139.108 448.945C139.637 448.626 140.239 448.467 140.913 448.467C141.925 448.467 142.72 448.786 143.299 449.424C143.882 450.062 144.174 450.966 144.174 452.138V452.944H139.464C139.528 453.427 139.719 453.815 140.038 454.106C140.362 454.398 140.77 454.544 141.262 454.544C142.023 454.544 142.618 454.268 143.046 453.717L144.017 454.804C143.72 455.223 143.319 455.551 142.813 455.788C142.308 456.021 141.747 456.137 141.132 456.137ZM140.906 450.066C140.514 450.066 140.195 450.199 139.949 450.463C139.708 450.727 139.553 451.105 139.484 451.598H142.232V451.44C142.223 451.003 142.105 450.666 141.877 450.429C141.649 450.187 141.326 450.066 140.906 450.066ZM144.994 452.247C144.994 451.094 145.252 450.176 145.767 449.492C146.286 448.809 146.995 448.467 147.893 448.467C148.613 448.467 149.207 448.736 149.677 449.273V445.5H151.659V456H149.875L149.779 455.214C149.287 455.829 148.654 456.137 147.879 456.137C147.008 456.137 146.309 455.795 145.78 455.111C145.256 454.423 144.994 453.468 144.994 452.247ZM146.97 452.391C146.97 453.083 147.09 453.614 147.332 453.983C147.574 454.353 147.924 454.537 148.385 454.537C148.995 454.537 149.426 454.28 149.677 453.765V450.846C149.431 450.331 149.005 450.073 148.398 450.073C147.446 450.073 146.97 450.846 146.97 452.391ZM155.275 456H153.293V448.604H155.275V456ZM153.177 446.689C153.177 446.393 153.275 446.149 153.471 445.958C153.671 445.767 153.942 445.671 154.284 445.671C154.621 445.671 154.89 445.767 155.091 445.958C155.291 446.149 155.392 446.393 155.392 446.689C155.392 446.99 155.289 447.236 155.084 447.428C154.883 447.619 154.617 447.715 154.284 447.715C153.951 447.715 153.683 447.619 153.478 447.428C153.277 447.236 153.177 446.99 153.177 446.689ZM161.195 456C161.104 455.822 161.038 455.601 160.997 455.337C160.519 455.87 159.896 456.137 159.131 456.137C158.406 456.137 157.805 455.927 157.326 455.508C156.852 455.089 156.615 454.56 156.615 453.922C156.615 453.138 156.905 452.536 157.483 452.117C158.067 451.698 158.908 451.486 160.006 451.481H160.915V451.058C160.915 450.716 160.826 450.442 160.648 450.237C160.475 450.032 160.2 449.93 159.821 449.93C159.489 449.93 159.227 450.009 159.035 450.169C158.848 450.328 158.755 450.547 158.755 450.825H156.779C156.779 450.397 156.911 450 157.176 449.636C157.44 449.271 157.814 448.986 158.297 448.781C158.78 448.572 159.322 448.467 159.924 448.467C160.835 448.467 161.558 448.697 162.091 449.157C162.629 449.613 162.897 450.256 162.897 451.085V454.291C162.902 454.993 163 455.524 163.191 455.884V456H161.195ZM159.562 454.626C159.853 454.626 160.122 454.562 160.368 454.435C160.614 454.302 160.797 454.127 160.915 453.908V452.637H160.177C159.188 452.637 158.661 452.979 158.598 453.662L158.591 453.778C158.591 454.024 158.677 454.227 158.851 454.387C159.024 454.546 159.261 454.626 159.562 454.626ZM173.65 453.949H170.055L169.371 456H167.19L170.896 446.047H172.796L176.521 456H174.341L173.65 453.949ZM170.608 452.288H173.097L171.846 448.562L170.608 452.288ZM180.397 454.544C180.762 454.544 181.058 454.444 181.286 454.243C181.514 454.043 181.632 453.776 181.642 453.443H183.494C183.49 453.945 183.353 454.405 183.084 454.824C182.815 455.239 182.446 455.562 181.977 455.795C181.512 456.023 180.997 456.137 180.432 456.137C179.374 456.137 178.54 455.802 177.93 455.132C177.319 454.457 177.014 453.528 177.014 452.343V452.213C177.014 451.074 177.317 450.164 177.923 449.485C178.529 448.806 179.361 448.467 180.418 448.467C181.343 448.467 182.084 448.731 182.64 449.26C183.2 449.784 183.485 450.483 183.494 451.358H181.642C181.632 450.976 181.514 450.666 181.286 450.429C181.058 450.187 180.757 450.066 180.384 450.066C179.924 450.066 179.575 450.235 179.338 450.572C179.105 450.905 178.989 451.447 178.989 452.199V452.404C178.989 453.165 179.105 453.712 179.338 454.045C179.57 454.378 179.924 454.544 180.397 454.544ZM187.698 454.544C188.063 454.544 188.359 454.444 188.587 454.243C188.815 454.043 188.933 453.776 188.942 453.443H190.795C190.79 453.945 190.654 454.405 190.385 454.824C190.116 455.239 189.747 455.562 189.277 455.795C188.812 456.023 188.298 456.137 187.732 456.137C186.675 456.137 185.841 455.802 185.23 455.132C184.62 454.457 184.314 453.528 184.314 452.343V452.213C184.314 451.074 184.618 450.164 185.224 449.485C185.83 448.806 186.661 448.467 187.719 448.467C188.644 448.467 189.384 448.731 189.94 449.26C190.501 449.784 190.786 450.483 190.795 451.358H188.942C188.933 450.976 188.815 450.666 188.587 450.429C188.359 450.187 188.058 450.066 187.685 450.066C187.224 450.066 186.876 450.235 186.639 450.572C186.406 450.905 186.29 451.447 186.29 452.199V452.404C186.29 453.165 186.406 453.712 186.639 454.045C186.871 454.378 187.224 454.544 187.698 454.544ZM191.615 452.233C191.615 451.5 191.757 450.846 192.039 450.271C192.322 449.697 192.727 449.253 193.256 448.938C193.789 448.624 194.407 448.467 195.108 448.467C196.106 448.467 196.92 448.772 197.549 449.383C198.182 449.993 198.535 450.823 198.608 451.871L198.622 452.377C198.622 453.512 198.305 454.423 197.672 455.111C197.038 455.795 196.188 456.137 195.122 456.137C194.056 456.137 193.203 455.795 192.565 455.111C191.932 454.428 191.615 453.498 191.615 452.322V452.233ZM193.591 452.377C193.591 453.079 193.723 453.617 193.987 453.99C194.252 454.359 194.63 454.544 195.122 454.544C195.601 454.544 195.974 454.362 196.243 453.997C196.512 453.628 196.646 453.04 196.646 452.233C196.646 451.545 196.512 451.012 196.243 450.634C195.974 450.256 195.596 450.066 195.108 450.066C194.625 450.066 194.252 450.256 193.987 450.634C193.723 451.007 193.591 451.589 193.591 452.377ZM204.269 455.248C203.781 455.84 203.106 456.137 202.245 456.137C201.452 456.137 200.846 455.909 200.427 455.453C200.012 454.997 199.8 454.33 199.791 453.45V448.604H201.767V453.382C201.767 454.152 202.118 454.537 202.819 454.537C203.489 454.537 203.95 454.305 204.2 453.84V448.604H206.183V456H204.323L204.269 455.248ZM209.491 448.604L209.553 449.458C210.081 448.797 210.79 448.467 211.679 448.467C212.463 448.467 213.046 448.697 213.429 449.157C213.812 449.618 214.007 450.306 214.017 451.222V456H212.041V451.27C212.041 450.85 211.95 450.547 211.768 450.36C211.585 450.169 211.282 450.073 210.858 450.073C210.302 450.073 209.885 450.31 209.607 450.784V456H207.632V448.604H209.491ZM217.886 446.785V448.604H219.15V450.053H217.886V453.744C217.886 454.018 217.938 454.214 218.043 454.332C218.148 454.451 218.348 454.51 218.645 454.51C218.863 454.51 219.057 454.494 219.226 454.462V455.959C218.838 456.077 218.439 456.137 218.029 456.137C216.644 456.137 215.938 455.437 215.91 454.038V450.053H214.83V448.604H215.91V446.785H217.886ZM224.257 453.956C224.257 453.715 224.136 453.525 223.895 453.389C223.658 453.247 223.275 453.122 222.746 453.013C220.987 452.644 220.107 451.896 220.107 450.771C220.107 450.114 220.379 449.567 220.921 449.13C221.468 448.688 222.181 448.467 223.061 448.467C223.999 448.467 224.749 448.688 225.31 449.13C225.875 449.572 226.157 450.146 226.157 450.853H224.182C224.182 450.57 224.09 450.338 223.908 450.155C223.726 449.968 223.441 449.875 223.054 449.875C222.721 449.875 222.464 449.95 222.281 450.101C222.099 450.251 222.008 450.442 222.008 450.675C222.008 450.894 222.11 451.071 222.315 451.208C222.525 451.34 222.876 451.456 223.368 451.557C223.86 451.652 224.275 451.762 224.612 451.885C225.656 452.268 226.178 452.931 226.178 453.874C226.178 454.549 225.888 455.095 225.31 455.515C224.731 455.929 223.983 456.137 223.067 456.137C222.448 456.137 221.896 456.027 221.413 455.809C220.935 455.585 220.559 455.282 220.285 454.899C220.012 454.512 219.875 454.095 219.875 453.648H221.748C221.766 453.999 221.896 454.268 222.138 454.455C222.379 454.642 222.703 454.735 223.108 454.735C223.487 454.735 223.771 454.665 223.963 454.523C224.159 454.378 224.257 454.188 224.257 453.956ZM227.552 455.029C227.552 454.715 227.657 454.46 227.866 454.264C228.08 454.068 228.347 453.97 228.666 453.97C228.99 453.97 229.256 454.068 229.466 454.264C229.68 454.46 229.787 454.715 229.787 455.029C229.787 455.339 229.682 455.592 229.473 455.788C229.263 455.979 228.994 456.075 228.666 456.075C228.342 456.075 228.076 455.979 227.866 455.788C227.657 455.592 227.552 455.339 227.552 455.029ZM227.552 449.431C227.552 449.116 227.657 448.861 227.866 448.665C228.08 448.469 228.347 448.371 228.666 448.371C228.99 448.371 229.256 448.469 229.466 448.665C229.68 448.861 229.787 449.116 229.787 449.431C229.787 449.741 229.682 449.993 229.473 450.189C229.263 450.381 228.994 450.477 228.666 450.477C228.342 450.477 228.076 450.381 227.866 450.189C227.657 449.993 227.552 449.741 227.552 449.431Z" fill="black"/>
<line x1="135" y1="219.5" x2="326.01" y2="219.5" stroke="black"/>
<rect x="-7.5" y="731.5" width="391" height="80" fill="white" stroke="black"/>
<rect x="288.5" y="759.5" width="74" height="25" fill="white" stroke="black"/>
<rect x="196.5" y="759.5" width="74" height="25" fill="white" stroke="black"/>
<path d="M12.5 759.5H86.5V784.5H12.5V759.5Z" fill="white" stroke="black"/>
<rect x="104.5" y="759.5" width="74" height="25" fill="white" stroke="black"/>
</g>
<defs>
<clipPath id="clip0">
<rect width="375" height="812" fill="white"/>
</clipPath>
</defs>
</svg>
